<svg width="48" height="48" viewBox="0 0 48 48" fill="none" xmlns="http://www.w3.org/2000/svg">
<path d="M24 48L23.3286 47.9908C10.3906 47.6348 0 37.0235 0 24C0 10.776 10.752 0 24 0C37.224 0 48 10.776 48 24C48 37.248 37.224 48 24 48ZM19.248 33.6C19.968 34.32 21.096 34.32 21.792 33.6L30.168 25.272C30.504 24.936 30.696 24.48 30.696 24C30.696 23.52 30.504 23.064 30.168 22.728L21.792 14.4C21.456 14.04 21 13.872 20.544 13.872C20.064 13.872 19.608 14.04 19.248 14.4C18.552 15.12 18.552 16.248 19.272 16.944L26.352 24L19.272 31.056C18.552 31.752 18.552 32.904 19.248 33.6Z" fill="white"/>
</svg>
