<svg width="48" height="49" viewBox="0 0 48 49" fill="none" xmlns="http://www.w3.org/2000/svg">
<path d="M24 48.5L24.6714 48.4908C37.6094 48.1348 48 37.5235 48 24.5C48 11.276 37.248 0.499998 24 0.499998C10.776 0.499998 0 11.276 0 24.5C0 37.748 10.776 48.5 24 48.5ZM28.752 34.1C28.032 34.82 26.904 34.82 26.208 34.1L17.832 25.772C17.496 25.436 17.304 24.98 17.304 24.5C17.304 24.02 17.496 23.564 17.832 23.228L26.208 14.9C26.544 14.54 27 14.372 27.456 14.372C27.936 14.372 28.392 14.54 28.752 14.9C29.448 15.62 29.448 16.748 28.728 17.444L21.648 24.5L28.728 31.556C29.448 32.252 29.448 33.404 28.752 34.1Z" fill="white"/>
</svg>
