<svg width="26" height="25" viewBox="0 0 26 25" fill="none" xmlns="http://www.w3.org/2000/svg">
<path d="M13.0071 2.25872C14.9813 0.985286 17.3977 0.659486 19.6248 1.36643C21.5618 1.9741 23.1725 3.36991 24.0824 5.22937C25.1464 7.48307 25.2912 10.0799 24.4848 12.4438C23.7425 14.6199 22.5256 16.5927 20.9271 18.211C19.8791 19.2977 18.7497 20.2982 17.5494 21.2034L17.4859 21.2578C17.0872 21.5286 16.5509 21.4223 16.2788 21.0184C16.1405 20.8234 16.085 20.5791 16.1249 20.3413C16.1648 20.1034 16.2967 19.8924 16.4906 19.7562C17.6169 18.9001 18.6787 17.958 19.6671 16.9379C21.0906 15.5248 22.1776 13.7933 22.8436 11.878C23.4842 9.96947 23.3545 7.87683 22.4836 6.06724C21.7827 4.64369 20.5478 3.57497 19.0636 3.10747C17.1704 2.49909 15.1079 2.8679 13.5259 4.09769C13.2114 4.33711 12.7816 4.33711 12.4671 4.09769C10.8858 2.86619 8.82244 2.49723 6.92938 3.10747C5.43515 3.56465 4.18796 4.63013 3.47759 6.05636C2.62631 7.86461 2.50453 9.94525 3.13877 11.8453C3.8076 13.756 4.89434 15.4834 6.31526 16.8943C8.41481 18.9633 10.73 20.7879 13.2188 22.3351C13.5354 22.5608 13.6746 22.9702 13.5637 23.3493C13.4527 23.7285 13.1169 23.9911 12.7318 24C12.5582 24.001 12.3883 23.9479 12.2447 23.8476C9.65208 22.2362 7.24092 20.3349 5.05525 18.1784C3.44792 16.5654 2.2265 14.5912 1.48699 12.4112C0.708413 10.0506 0.868236 7.4695 1.9317 5.22937C2.84164 3.36991 4.45234 1.9741 6.38938 1.36643C8.61647 0.659486 11.0328 0.985286 13.0071 2.25872ZM17.5312 5.83842L17.6659 5.83873C19.2447 6.35092 20.3685 7.78918 20.5142 9.48404L20.521 9.62608C20.5153 9.81471 20.4515 9.99802 20.3369 10.1486C20.1936 10.3367 19.9828 10.458 19.7518 10.4851C19.2669 10.5495 18.8223 10.1996 18.7565 9.70167C18.7123 8.69606 18.0606 7.82633 17.1259 7.52537C16.7784 7.30239 16.624 6.86429 16.7521 6.46434C16.8801 6.0644 17.2575 5.80608 17.6659 5.83873L17.5312 5.83842Z" fill="#172542" stroke="#172542" stroke-width="0.5"/>
</svg>
