<svg width="22" height="21" viewBox="0 0 22 21" fill="none" xmlns="http://www.w3.org/2000/svg">
<g clip-path="url(#clip0_281_8820)">
<path d="M21.7427 3.26541C21.5365 3.03982 21.24 2.90857 20.9263 2.90857H5.68962C5.09665 2.90857 4.6154 3.36795 4.6154 3.93396C4.6154 4.49998 5.09665 4.95935 5.68962 4.95935H19.6716L18.7349 10.7467C18.6318 11.3947 18.056 11.8664 17.3685 11.8664H3.91501L2.1361 0.870094C2.04587 0.308179 1.49587 -0.0732661 0.911492 0.0128668C0.32282 0.0989996 -0.0767898 0.624 0.0134446 1.18181L2.46266 16.3084C2.55719 16.8908 2.86657 17.424 3.33493 17.8096C3.80329 18.1951 4.40485 18.4043 5.0193 18.4043H6.70368V19.9752C6.70368 20.5412 7.18493 21.0006 7.7779 21.0006C8.37087 21.0006 8.85212 20.5412 8.85212 19.9752V18.4043H15.1341V19.9752C15.1341 20.5412 15.6154 21.0006 16.2084 21.0006C16.8013 21.0006 17.2826 20.5412 17.2826 19.9752V18.4043H19.3537C19.9466 18.4043 20.4279 17.9449 20.4279 17.3789C20.4279 16.8129 19.9466 16.3535 19.3537 16.3535H5.0193C4.80016 16.3535 4.6154 16.2017 4.58102 15.9967L4.24587 13.9172H17.3685C18.2107 13.9172 19.0271 13.6301 19.6674 13.1051C20.3076 12.5801 20.7287 11.8541 20.8576 11.0625L21.9877 4.08982C22.0349 3.79041 21.9447 3.49099 21.7427 3.26541V3.26541Z" fill="#172542"/>
</g>
<defs>
<clipPath id="clip0_281_8820">
<rect width="22" height="21" fill="white"/>
</clipPath>
</defs>
</svg>
