<svg width="96" height="96" viewBox="0 0 96 96" fill="none" xmlns="http://www.w3.org/2000/svg">
<circle cx="48" cy="48" r="48" fill="#FFE6E6"/>
<path fill-rule="evenodd" clip-rule="evenodd" d="M48.2283 22C50.6962 22 52.9051 23.2799 54.1294 25.4235L71.5155 55.8214C72.7325 57.9481 72.7252 60.4861 71.4937 62.6079C70.2622 64.7322 68.0629 66 65.612 66H30.8132C28.3599 66 26.1606 64.7322 24.9291 62.6079C23.6976 60.4861 23.6903 57.9481 24.9073 55.8214L42.3273 25.4187C43.5516 23.2775 45.7557 22 48.2259 22H48.2283ZM48.2259 25.6292C47.0743 25.6292 46.0484 26.2243 45.4726 27.2236L28.0574 57.6239C27.4913 58.6159 27.4961 59.799 28.0695 60.7885C28.6429 61.7781 29.6688 62.3708 30.8132 62.3708H65.612C66.754 62.3708 67.7799 61.7781 68.3533 60.7885C68.9291 59.799 68.9339 58.6159 68.3629 57.6239L50.9792 27.2236C50.4058 26.2243 49.38 25.6292 48.2259 25.6292ZM48.2095 52.2406C49.5474 52.2406 50.6289 53.3221 50.6289 54.6601C50.6289 55.998 49.5474 57.0795 48.2095 57.0795C46.8715 57.0795 45.7779 55.998 45.7779 54.6601C45.7779 53.3221 46.8497 52.2406 48.1853 52.2406H48.2095ZM48.2046 37.8812C49.2063 37.8812 50.0192 38.6942 50.0192 39.6958V47.1961C50.0192 48.1977 49.2063 49.0107 48.2046 49.0107C47.203 49.0107 46.39 48.1977 46.39 47.1961V39.6958C46.39 38.6942 47.203 37.8812 48.2046 37.8812Z" fill="#172542"/>
</svg>
