<svg width="25" height="26" viewBox="0 0 25 26" fill="none" xmlns="http://www.w3.org/2000/svg">
<path d="M2.62017 6.58584C3.03362 6.45842 3.49042 6.60459 3.75108 6.963C4.0407 7.36123 4.00644 7.90909 3.66945 8.26813L2.74639 8.95188C2.30902 9.31525 2.05458 9.85333 2.05124 10.4219V20.8491C2.06372 22.5477 3.44092 23.9198 5.13951 23.926H10.3816V23.9488C10.948 23.9488 11.4072 24.4079 11.4072 24.9744C11.4072 25.5408 10.948 26 10.3816 26H5.13951C2.30364 25.9937 0.00626714 23.6964 0 20.8605V10.4219C0.0181314 9.21571 0.584327 8.08332 1.53843 7.34507L2.48428 6.63853L2.62017 6.58584ZM9.33316 1.0432C11.0636 -0.347732 13.5286 -0.347732 15.259 1.0432L23.1335 7.32228C24.0666 8.07275 24.6143 9.20178 24.6263 10.3991L24.6149 20.8491C24.6149 23.6876 22.3139 25.9886 19.4754 25.9886H17.1963C15.8224 25.9886 14.7069 24.8782 14.7006 23.5043V18.7865L14.6899 18.6677C14.634 18.3593 14.3641 18.1255 14.0396 18.1255H10.6209C10.4436 18.1255 10.2737 18.1967 10.1494 18.3231C10.0252 18.4495 9.95687 18.6206 9.95993 18.7979V20.5984C9.95993 21.1648 9.50074 21.624 8.93431 21.624C8.36787 21.624 7.90869 21.1648 7.90869 20.5984V18.7979C7.90869 18.0755 8.19564 17.3828 8.70641 16.872C9.21718 16.3612 9.90994 16.0743 10.6323 16.0743H14.051C15.5508 16.0805 16.7632 17.2981 16.7632 18.7979V23.5043C16.7632 23.7435 16.9571 23.9374 17.1963 23.9374H19.5324C21.2317 23.9374 22.6093 22.5598 22.6093 20.8605V10.4219C22.6009 9.84366 22.3332 9.29975 21.8799 8.94049L14.0054 2.6614C13.0125 1.84391 11.5797 1.84391 10.5867 2.6614L8.05683 4.5531C7.58795 4.88982 6.93488 4.78267 6.59817 4.31379C6.26145 3.84491 6.3686 3.19184 6.83748 2.85513L9.33316 1.0432Z" fill="#172542"/>
</svg>
