<svg width="52" height="52" viewBox="0 0 52 52" fill="none" xmlns="http://www.w3.org/2000/svg">
<path fill-rule="evenodd" clip-rule="evenodd" d="M3.25003 26C3.25003 25.569 3.42123 25.1557 3.72598 24.851C4.03072 24.5462 4.44405 24.375 4.87503 24.375H43.2023L32.9745 14.1505C32.8234 13.9994 32.7036 13.8201 32.6218 13.6227C32.5401 13.4253 32.498 13.2137 32.498 13C32.498 12.7863 32.5401 12.5748 32.6218 12.3774C32.7036 12.18 32.8234 12.0006 32.9745 11.8495C33.1256 11.6984 33.305 11.5786 33.5024 11.4968C33.6998 11.415 33.9114 11.373 34.125 11.373C34.3387 11.373 34.5503 11.415 34.7477 11.4968C34.9451 11.5786 35.1244 11.6984 35.2755 11.8495L48.2755 24.8495C48.4269 25.0005 48.5469 25.1798 48.6288 25.3772C48.7108 25.5746 48.7529 25.7863 48.7529 26C48.7529 26.2138 48.7108 26.4254 48.6288 26.6228C48.5469 26.8202 48.4269 26.9996 48.2755 27.1505L35.2755 40.1505C35.1244 40.3016 34.9451 40.4214 34.7477 40.5032C34.5503 40.585 34.3387 40.6271 34.125 40.6271C33.9114 40.6271 33.6998 40.585 33.5024 40.5032C33.305 40.4214 33.1256 40.3016 32.9745 40.1505C32.8234 39.9994 32.7036 39.8201 32.6218 39.6227C32.5401 39.4253 32.498 39.2137 32.498 39C32.498 38.7863 32.5401 38.5748 32.6218 38.3774C32.7036 38.18 32.8234 38.0006 32.9745 37.8495L43.2023 27.625H4.87503C4.44405 27.625 4.03072 27.4538 3.72598 27.1491C3.42123 26.8443 3.25003 26.431 3.25003 26Z" fill="#ADBFD4"/>
</svg>
