<svg width="26" height="26" viewBox="0 0 26 26" fill="none" xmlns="http://www.w3.org/2000/svg">
<g clip-path="url(#clip0_411_11330)">
<path d="M25.9392 5.77962C25.8066 5.4406 25.4796 5.21777 25.1159 5.21777H18.896V6.98649H22.8578L20.4362 9.22681H14.5332V10.9955H20.7826C21.0051 10.9955 21.2197 10.9115 21.383 10.7603L25.7163 6.75127C25.9834 6.50417 26.0718 6.11833 25.9392 5.77962Z" fill="#172542"/>
<path d="M10.7594 6.98637V5.21765H5.21752C4.99495 5.21765 4.78035 5.30164 4.61703 5.45287L0.283758 9.46196C0.0166993 9.70901 -0.0717619 10.0948 0.060879 10.4336C0.19352 10.7726 0.520146 10.9954 0.884197 10.9954H6.80932V9.22669H3.14255L5.5639 6.98637H10.7594Z" fill="#172542"/>
<path d="M6.6326 12.6464H0.884357C0.395891 12.6464 0 13.0423 0 13.5307C0 14.0191 0.395891 14.4151 0.884357 14.4151H6.6326C7.12107 14.4151 7.51696 14.0192 7.51696 13.5307C7.51696 13.0423 7.12107 12.6464 6.6326 12.6464Z" fill="#172542"/>
<path d="M25.8104 9.56345C25.5077 9.17964 24.952 9.11419 24.5682 9.41694L20.4757 12.6466H14.6217C14.1332 12.6466 13.7373 13.0425 13.7373 13.5309C13.7373 14.0194 14.1332 14.4153 14.6217 14.4153H20.7826C20.9816 14.4153 21.1744 14.3481 21.3306 14.2252L25.6639 10.8054C26.0474 10.5029 26.1129 9.94695 25.8104 9.56345Z" fill="#172542"/>
<path d="M6.6326 16.0953H0.884357C0.395891 16.0953 0 16.4912 0 16.9797C0 17.4682 0.395891 17.864 0.884357 17.864H6.6326C7.12107 17.864 7.51696 17.4682 7.51696 16.9797C7.51696 16.4912 7.12107 16.0953 6.6326 16.0953Z" fill="#172542"/>
<path d="M25.8328 13.3379C25.5474 12.9417 24.9953 12.8521 24.5982 13.1377L20.4966 16.0953H14.6803C14.1918 16.0953 13.7959 16.4912 13.7959 16.9796C13.7959 17.4681 14.1918 17.864 14.6803 17.864H20.7822C20.968 17.864 21.1489 17.8056 21.2993 17.6971L25.6326 14.5724C26.0288 14.2868 26.1181 13.7341 25.8328 13.3379Z" fill="#172542"/>
<path d="M25.8556 17.0853C25.5886 16.6765 25.0403 16.5609 24.6317 16.8286L20.5189 19.5146H0.884357C0.395891 19.5146 0 19.9105 0 20.3989C0 20.8874 0.395891 21.2833 0.884357 21.2833H20.7821C20.954 21.2833 21.1217 21.2335 21.2656 21.1394L25.5988 18.3092C26.0077 18.0422 26.1227 17.4945 25.8556 17.0853Z" fill="#172542"/>
<path d="M20.013 5.27723C19.88 4.93882 19.5534 4.71655 19.19 4.71655H11.4667C11.2432 4.71655 11.028 4.80115 10.8645 4.95355L6.2069 9.28682C6.02708 9.45394 5.9248 9.6886 5.9248 9.93418V20.1042H7.69352V10.3195L11.8146 6.48522H16.9411L13.9299 9.28682C13.7504 9.45394 13.6481 9.6886 13.6481 9.93418V20.1042H15.4169V10.3195L19.7926 6.24822C20.0584 6.00091 20.1459 5.61564 20.013 5.27723Z" fill="#172542"/>
</g>
<defs>
<clipPath id="clip0_411_11330">
<rect width="26" height="26" fill="white"/>
</clipPath>
</defs>
</svg>
