<svg width="28" height="28" viewBox="0 0 28 28" fill="none" xmlns="http://www.w3.org/2000/svg">
<path d="M22.5312 16.4129C23.1354 16.4129 23.625 16.9025 23.625 17.5066V18.8191C23.625 19.4232 23.1354 19.9129 22.5312 19.9129H20.0156C19.4115 19.9129 18.9219 19.4232 18.9219 18.8191V17.5066C18.9219 16.9025 19.4115 16.4129 20.0156 16.4129H22.5312ZM25.8125 14.4441V11.1629H2.1875V19.9062C2.1875 21.1124 3.16888 22.0938 4.375 22.0938H23.625C24.8311 22.0938 25.8125 21.1124 25.8125 19.9062C25.8125 19.3021 26.3021 18.8125 26.9062 18.8125C27.5104 18.8125 28 19.3021 28 19.9062C28 22.3187 26.0374 24.2812 23.625 24.2812H4.375C1.96255 24.2812 0 22.3187 0 19.9062V8.09375C0 5.6813 1.96255 3.71875 4.375 3.71875H23.625C26.0374 3.71875 28 5.6813 28 8.09375V14.4441C28 15.0482 27.5104 15.5379 26.9062 15.5379C26.3021 15.5379 25.8125 15.0482 25.8125 14.4441ZM25.8125 8.97537V8.09375C25.8125 6.88763 24.8311 5.90625 23.625 5.90625H4.375C3.16888 5.90625 2.1875 6.88763 2.1875 8.09375V8.97537H25.8125ZM5.46875 13.3504C4.86462 13.3504 4.375 13.84 4.375 14.4441C4.375 15.0482 4.86462 15.5379 5.46875 15.5379H14.4922C15.0963 15.5379 15.5859 15.0482 15.5859 14.4441C15.5859 13.84 15.0963 13.3504 14.4922 13.3504H5.46875Z" fill="#172542"/>
</svg>
