<svg width="20" height="20" viewBox="0 0 20 20" fill="none" xmlns="http://www.w3.org/2000/svg">
<path d="M2.30629 8.58485C2.6483 8.35297 3.11531 8.43693 3.34931 8.77775C5.94438 12.5448 10.6845 16.7856 13.7006 18.039C14.9206 18.6057 15.8286 18.6407 16.5047 18.1559C17.0317 17.8371 18.5287 16.3499 18.5017 15.5763C18.4927 15.4853 18.3887 15.3144 18.2117 15.1335C17.6357 14.5438 15.7026 13.0815 15.2986 12.9296C14.9796 12.8617 14.6476 13.0556 14.1416 13.3744L13.8856 13.5333C13.5306 13.7462 13.0696 13.6333 12.8556 13.2774C12.6426 12.9236 12.7566 12.4629 13.1116 12.249L13.3426 12.106C13.9026 11.7532 14.6756 11.2715 15.6476 11.4734C16.4136 11.6323 18.8227 13.6133 19.2837 14.084C19.7177 14.5278 19.9577 15.0006 19.9987 15.4873C20.0637 17.3294 17.5967 19.2544 17.3137 19.4163C16.7757 19.8041 16.1446 20 15.4346 20C14.7286 20 13.9446 19.8061 13.0956 19.4103C9.83048 18.055 4.89235 13.6602 2.11428 9.62732C1.87928 9.28649 1.96528 8.81973 2.30629 8.58485ZM4.30267 0.000981527L4.47944 0.00375015C4.99546 0.0467281 5.46747 0.286605 5.91048 0.718384C6.38249 1.17915 8.36454 3.58991 8.52355 4.35252C8.69455 5.1731 8.32554 5.81377 8.05653 6.28153C7.79153 6.7423 7.69952 6.9392 7.79053 7.18807C8.45954 8.82423 9.49357 10.1615 10.8546 11.133C11.1916 11.3749 11.2686 11.8427 11.0276 12.1795C10.8816 12.3834 10.6516 12.4933 10.4176 12.4933C10.2656 12.4933 10.1136 12.4474 9.98158 12.3534C8.38754 11.213 7.17951 9.6568 6.39049 7.72679C6.04348 6.77228 6.45549 6.05665 6.7565 5.53392C6.98251 5.14212 7.10751 4.90824 7.05451 4.65836C6.9145 4.29755 5.45247 2.36754 4.86245 1.79283C4.68045 1.61392 4.50944 1.50898 4.38244 1.49898C3.66642 1.48199 2.20238 2.89727 1.87038 3.44798C1.35536 4.15562 1.39136 5.06216 1.94438 6.27653C2.11538 6.65334 1.94938 7.09711 1.57237 7.26903C1.19436 7.43994 0.751348 7.27502 0.579343 6.89722C-0.207677 5.1711 -0.192676 3.72984 0.623344 2.61741C0.927352 2.10867 2.8384 -0.103195 4.47944 0.00375015L4.30267 0.000981527Z" fill="#FAD89D"/>
</svg>
