<svg width="52" height="52" viewBox="0 0 52 52" fill="none" xmlns="http://www.w3.org/2000/svg">
<path fill-rule="evenodd" clip-rule="evenodd" d="M48.75 26C48.75 25.569 48.5788 25.1557 48.274 24.851C47.9693 24.5462 47.556 24.375 47.125 24.375H8.79773L19.0255 14.1505C19.1766 13.9994 19.2964 13.8201 19.3782 13.6227C19.4599 13.4253 19.502 13.2137 19.502 13C19.502 12.7863 19.4599 12.5748 19.3782 12.3774C19.2964 12.18 19.1766 12.0006 19.0255 11.8495C18.8744 11.6984 18.695 11.5786 18.4976 11.4968C18.3002 11.415 18.0886 11.373 17.875 11.373C17.6613 11.373 17.4497 11.415 17.2523 11.4968C17.0549 11.5786 16.8756 11.6984 16.7245 11.8495L3.72448 24.8495C3.57314 25.0005 3.45308 25.1798 3.37116 25.3772C3.28924 25.5746 3.24707 25.7863 3.24707 26C3.24707 26.2138 3.28924 26.4254 3.37116 26.6228C3.45308 26.8202 3.57314 26.9996 3.72448 27.1505L16.7245 40.1505C16.8756 40.3016 17.0549 40.4214 17.2523 40.5032C17.4497 40.585 17.6613 40.6271 17.875 40.6271C18.0886 40.6271 18.3002 40.585 18.4976 40.5032C18.695 40.4214 18.8744 40.3016 19.0255 40.1505C19.1766 39.9994 19.2964 39.8201 19.3782 39.6227C19.4599 39.4253 19.502 39.2137 19.502 39C19.502 38.7863 19.4599 38.5748 19.3782 38.3774C19.2964 38.18 19.1766 38.0006 19.0255 37.8495L8.79773 27.625H47.125C47.556 27.625 47.9693 27.4538 48.274 27.1491C48.5788 26.8443 48.75 26.431 48.75 26Z" fill="#ADBFD4"/>
</svg>
