<svg width="32" height="29" viewBox="0 0 32 29" fill="none" xmlns="http://www.w3.org/2000/svg">
<path d="M13.0071 6.25872C14.9813 4.98529 17.3977 4.65949 19.6248 5.36643C21.5618 5.9741 23.1725 7.36991 24.0824 9.22937C25.1464 11.4831 25.2912 14.0799 24.4848 16.4438C23.7425 18.6199 22.5256 20.5927 20.9271 22.211C19.8791 23.2977 18.7497 24.2982 17.5494 25.2034L17.4859 25.2578C17.0872 25.5286 16.5509 25.4223 16.2788 25.0184C16.1405 24.8234 16.085 24.5791 16.1249 24.3413C16.1648 24.1034 16.2967 23.8924 16.4906 23.7562C17.6169 22.9001 18.6787 21.958 19.6671 20.9379C21.0906 19.5248 22.1776 17.7933 22.8436 15.878C23.4842 13.9695 23.3545 11.8768 22.4836 10.0672C21.7827 8.64369 20.5478 7.57497 19.0636 7.10747C17.1704 6.49909 15.1079 6.8679 13.5259 8.09769C13.2114 8.33711 12.7816 8.33711 12.4671 8.09769C10.8858 6.86619 8.82244 6.49723 6.92938 7.10747C5.43515 7.56465 4.18796 8.63013 3.47759 10.0564C2.62631 11.8646 2.50453 13.9452 3.13877 15.8453C3.8076 17.756 4.89434 19.4834 6.31526 20.8943C8.41481 22.9633 10.73 24.7879 13.2188 26.3351C13.5354 26.5608 13.6746 26.9702 13.5637 27.3493C13.4527 27.7285 13.1169 27.9911 12.7318 28C12.5582 28.001 12.3883 27.9479 12.2447 27.8476C9.65208 26.2362 7.24092 24.3349 5.05525 22.1784C3.44792 20.5654 2.2265 18.5912 1.48699 16.4112C0.708413 14.0506 0.868236 11.4695 1.9317 9.22937C2.84164 7.36991 4.45234 5.9741 6.38938 5.36643C8.61647 4.65949 11.0328 4.98529 13.0071 6.25872ZM17.5312 9.83842L17.6659 9.83873C19.2447 10.3509 20.3685 11.7892 20.5142 13.484L20.521 13.6261C20.5153 13.8147 20.4515 13.998 20.3369 14.1486C20.1936 14.3367 19.9828 14.458 19.7518 14.4851C19.2669 14.5495 18.8223 14.1996 18.7565 13.7017C18.7123 12.6961 18.0606 11.8263 17.1259 11.5254C16.7784 11.3024 16.624 10.8643 16.7521 10.4643C16.8801 10.0644 17.2575 9.80608 17.6659 9.83873L17.5312 9.83842Z" fill="#172542" stroke="#172542" stroke-width="0.5"/>
<circle cx="25" cy="7" r="7" fill="#E70A0A"/>
<path d="M22.7646 4.76413C22.8948 4.63396 23.1059 4.63396 23.236 4.76413L25.0003 6.52843L26.7646 4.76413C26.8948 4.63396 27.1059 4.63396 27.236 4.76413C27.3662 4.89431 27.3662 5.10536 27.236 5.23554L25.4717 6.99984L27.236 8.76413C27.3662 8.89431 27.3662 9.10536 27.236 9.23554C27.1059 9.36571 26.8948 9.36571 26.7646 9.23554L25.0003 7.47124L23.236 9.23554C23.1059 9.36571 22.8948 9.36571 22.7646 9.23554C22.6344 9.10536 22.6344 8.89431 22.7646 8.76413L24.5289 6.99984L22.7646 5.23554C22.6344 5.10536 22.6344 4.89431 22.7646 4.76413Z" fill="white"/>
</svg>
