<svg width="26" height="26" viewBox="0 0 26 26" fill="none" xmlns="http://www.w3.org/2000/svg">
<path d="M21.8208 20.2908L18.3075 16.7774C19.3723 15.3835 19.9562 13.6928 19.9565 11.9087C19.9565 9.75872 19.1191 7.73726 17.5986 6.217C16.0783 4.69674 14.0571 3.85938 11.9068 3.85938C9.75685 3.85938 7.73538 4.69674 6.21512 6.217C3.07673 9.35565 3.07673 14.4623 6.21512 17.6005C7.73538 19.121 9.75685 19.9583 11.9068 19.9583C13.6909 19.9581 15.3817 19.3741 16.7756 18.3093L20.2889 21.8227C20.5003 22.0343 20.7777 22.1401 21.0549 22.1401C21.3321 22.1401 21.6095 22.0343 21.8208 21.8227C22.244 21.3998 22.244 20.7137 21.8208 20.2908ZM7.74702 16.0686C5.4534 13.7749 5.45366 10.0428 7.74702 7.7489C8.85812 6.63806 10.3355 6.02604 11.9068 6.02604C13.4784 6.02604 14.9556 6.63806 16.0667 7.7489C17.1778 8.86 17.7898 10.3374 17.7898 11.9087C17.7898 13.4803 17.1778 14.9574 16.0667 16.0686C14.9556 17.1797 13.4784 17.7917 11.9068 17.7917C10.3355 17.7917 8.85812 17.1797 7.74702 16.0686Z" fill="#ADBFD4"/>
</svg>
