<svg width="20" height="20" viewBox="0 0 20 20" fill="none" xmlns="http://www.w3.org/2000/svg">
<g clip-path="url(#clip0_309_8358)">
<path d="M3.5825 18.5625C3.485 19.1175 4.0325 19.5513 4.515 19.3038L10.0025 16.4838L15.4888 19.3038C15.9713 19.5513 16.5188 19.1175 16.4213 18.5638L15.3838 12.6513L19.7863 8.45628C20.1988 8.06378 19.9863 7.34628 19.4338 7.26878L13.3113 6.39878L10.5813 0.990026C10.5292 0.880387 10.4472 0.787755 10.3446 0.722891C10.2421 0.658028 10.1232 0.623596 10.0019 0.623596C9.88053 0.623596 9.76167 0.658028 9.65912 0.722891C9.55656 0.787755 9.47451 0.880387 9.4225 0.990026L6.6925 6.40003L0.570003 7.27003C0.0187529 7.34753 -0.194997 8.06503 0.216253 8.45753L4.62 12.6525L3.5825 18.565V18.5625ZM9.71375 15.1038L5.10625 17.4713L5.97375 12.525C5.99408 12.4112 5.98612 12.2941 5.9506 12.184C5.91507 12.0739 5.85306 11.9743 5.77 11.8938L2.1375 8.43128L7.2025 7.71128C7.30738 7.69544 7.40686 7.65441 7.49242 7.59171C7.57798 7.52902 7.64706 7.44651 7.69375 7.35128L10 2.77878L12.3088 7.35128C12.3554 7.44651 12.4245 7.52902 12.5101 7.59171C12.5956 7.65441 12.6951 7.69544 12.8 7.71128L17.865 8.43003L14.2325 11.8925C14.1493 11.9731 14.0871 12.073 14.0516 12.1833C14.0161 12.2936 14.0082 12.411 14.0288 12.525L14.8963 17.4713L10.2888 15.1038C10.1997 15.0578 10.1009 15.0339 10.0006 15.0339C9.90039 15.0339 9.8016 15.0578 9.7125 15.1038H9.71375Z" fill="#FFA800"/>
</g>
<defs>
<clipPath id="clip0_309_8358">
<rect width="20" height="20" fill="white"/>
</clipPath>
</defs>
</svg>
