<svg width="32" height="32" viewBox="0 0 32 32" fill="none" xmlns="http://www.w3.org/2000/svg">
<path d="M16 0L16.4476 0.00615074C25.0729 0.243461 32 7.31769 32 16C32 24.816 24.832 32 16 32C7.184 32 0 24.816 0 16C0 7.168 7.184 0 16 0ZM19.168 9.6C18.688 9.12 17.936 9.12 17.472 9.6L11.888 15.152C11.664 15.376 11.536 15.68 11.536 16C11.536 16.32 11.664 16.624 11.888 16.848L17.472 22.4C17.696 22.64 18 22.752 18.304 22.752C18.624 22.752 18.928 22.64 19.168 22.4C19.632 21.92 19.632 21.168 19.152 20.704L14.432 16L19.152 11.296C19.632 10.832 19.632 10.064 19.168 9.6Z" fill="#9100D6"/>
</svg>
