<svg width="28" height="27" viewBox="0 0 28 27" fill="none" xmlns="http://www.w3.org/2000/svg">
<g clip-path="url(#clip0_281_8966)">
<path d="M27.6721 4.19854C27.4096 3.9085 27.0323 3.73975 26.6331 3.73975H7.24089C6.4862 3.73975 5.8737 4.33037 5.8737 5.05811C5.8737 5.78584 6.4862 6.37647 7.24089 6.37647H25.0362L23.844 13.8173C23.7128 14.6505 22.9799 15.2569 22.1049 15.2569H4.98229L2.71823 1.11885C2.60339 0.396388 1.90339 -0.0940423 1.15964 0.0167C0.410417 0.127442 -0.0981763 0.802442 0.0166674 1.51963L3.13385 20.9681C3.25417 21.7169 3.64792 22.4024 4.24401 22.8982C4.84011 23.3939 5.60573 23.6628 6.38776 23.6628H8.53151V25.6825C8.53151 26.4103 9.14401 27.0009 9.8987 27.0009C10.6534 27.0009 11.2659 26.4103 11.2659 25.6825V23.6628H19.2612V25.6825C19.2612 26.4103 19.8737 27.0009 20.6284 27.0009C21.3831 27.0009 21.9956 26.4103 21.9956 25.6825V23.6628H24.6315C25.3862 23.6628 25.9987 23.0722 25.9987 22.3444C25.9987 21.6167 25.3862 21.0261 24.6315 21.0261H6.38776C6.10886 21.0261 5.8737 20.831 5.82995 20.5673L5.40339 17.8937H22.1049C23.1768 17.8937 24.2159 17.5245 25.0307 16.8495C25.8456 16.1745 26.3815 15.2411 26.5456 14.2233L27.9839 5.2585C28.044 4.87354 27.9292 4.48858 27.6721 4.19854Z" fill="#172542"/>
</g>
<defs>
<clipPath id="clip0_281_8966">
<rect width="28" height="27" fill="white" transform="translate(-0.000488281)"/>
</clipPath>
</defs>
</svg>
