<svg width="34" height="34" viewBox="0 0 34 34" fill="none" xmlns="http://www.w3.org/2000/svg">
<path fill-rule="evenodd" clip-rule="evenodd" d="M1.5 4C1.5 2.34277 2.84326 1 4.5 1H26C27.6567 1 29 2.34277 29 4V15V21C29 21.5527 28.5522 22 28 22C27.4478 22 27 21.5527 27 21V15V4C27 3.44727 26.5522 3 26 3H4.5C3.94775 3 3.5 3.44727 3.5 4V27C3.5 27.5527 3.94775 28 4.5 28H15H18.5H20C20.5522 28 21 28.4473 21 29C21 29.5527 20.5522 30 20 30H18.5H15H4.5C2.84326 30 1.5 28.6572 1.5 27V4ZM7 8C7 7.44727 7.44775 7 8 7H22C22.5522 7 23 7.44727 23 8C23 8.55273 22.5522 9 22 9H8C7.44775 9 7 8.55273 7 8ZM8 12C7.44775 12 7 12.4473 7 13C7 13.1602 7.03784 13.3115 7.10498 13.4463C7.21997 13.6768 7.42163 13.8564 7.66724 13.9434C7.77124 13.9805 7.8833 14 8 14H22C22.5522 14 23 13.5527 23 13C23 12.8584 22.9707 12.7246 22.918 12.6025C22.8948 12.5488 22.8669 12.4971 22.835 12.4482L22.7874 12.3818C22.7681 12.3574 22.7476 12.334 22.7261 12.3115C22.6606 12.2432 22.5857 12.1836 22.5032 12.1357C22.3555 12.0498 22.1836 12 22 12H8ZM7 18C7 17.4473 7.44775 17 8 17H22C22.2969 17 22.5637 17.1289 22.7468 17.335C22.9043 17.5117 23 17.7441 23 18C23 18.5527 22.5522 19 22 19H8C7.83813 19 7.68506 18.9609 7.5498 18.8926C7.45337 18.8438 7.36597 18.7803 7.29053 18.7051C7.11084 18.5244 7 18.2754 7 18ZM8 22C7.44775 22 7 22.4473 7 23C7 23.5527 7.44775 24 8 24H22C22.5522 24 23 23.5527 23 23C23 22.7109 22.8772 22.4502 22.6807 22.2676C22.5757 22.1699 22.4495 22.0947 22.3098 22.0498C22.2124 22.0176 22.1082 22 22 22H8ZM27 25C27 24.7979 27.0598 24.6104 27.1626 24.4531C27.3413 24.1807 27.6497 24 28 24C28.5522 24 29 24.4473 29 25V28H32C32.1584 28 32.3083 28.0371 32.4414 28.1025C32.7722 28.2646 33 28.6055 33 29C33 29.5527 32.5522 30 32 30H29V33C29 33.5527 28.5522 34 28 34C27.7288 34 27.4829 33.8926 27.3027 33.7168C27.116 33.5352 27 33.2812 27 33V30H24C23.4478 30 23 29.5527 23 29C23 28.4473 23.4478 28 24 28H27V25Z" fill="#2A4455"/>
</svg>
