<svg width="14" height="22" viewBox="0 0 14 22" fill="none" xmlns="http://www.w3.org/2000/svg">
<path d="M6.99996 3.32812C8.29684 3.32812 9.35153 4.38281 9.35153 5.67969C9.35153 6.97266 8.29684 8.02734 6.99996 8.02734C5.70309 8.02734 4.6484 6.97266 4.6484 5.67969C4.6484 4.38281 5.70309 3.32812 6.99996 3.32812ZM6.99996 11.3555C10.1328 11.3555 12.6797 8.80859 12.6797 5.67969C12.6797 2.54688 10.1328 0 6.99996 0C3.86715 0 1.32418 2.54688 1.32418 5.67969C1.32418 8.80859 3.86715 11.3555 6.99996 11.3555ZM9.29684 15.9883C10.4531 15.7227 11.5664 15.2656 12.5937 14.6211C13.3711 14.1328 13.6054 13.1055 13.1172 12.3281C12.625 11.5469 11.6015 11.3125 10.8203 11.8047C8.49606 13.2656 5.50387 13.2656 3.17574 11.8047C2.3984 11.3125 1.37106 11.5469 0.882776 12.3281C0.394494 13.1055 0.628869 14.1328 1.40621 14.6211C2.43356 15.2656 3.54684 15.7227 4.70309 15.9883L1.52731 19.1602C0.878868 19.8086 0.878868 20.8633 1.52731 21.5117C1.85543 21.8359 2.27731 22 2.70309 22C3.12887 22 3.55465 21.8359 3.88278 21.5117L6.99996 18.3945L10.1211 21.5117C10.7695 22.1641 11.8203 22.1641 12.4726 21.5117C13.1211 20.8633 13.1211 19.8086 12.4726 19.1602L9.29684 15.9883Z" fill="#172542"/>
</svg>
