<?xml version="1.0" encoding="utf-8"?><svg viewBox="0 0 30 29" xmlns="http://www.w3.org/2000/svg" xmlns:xlink="http://www.w3.org/1999/xlink"><style>:root>svg{display:none}:root>svg:target{display:block}</style><svg viewBox="0 0 30 29" id="Heart" xmlns="http://www.w3.org/2000/svg"><path d="M15.008 2.856a9.19 9.19 0 017.72-1.032A8.691 8.691 0 0127.93 6.29a11.06 11.06 0 01.469 8.344 17.525 17.525 0 01-4.15 6.67 33.403 33.403 0 01-3.941 3.46l-.074.064c-.466.313-1.091.19-1.409-.277a1.047 1.047 0 01.247-1.46 32.683 32.683 0 003.706-3.26 15.323 15.323 0 003.706-5.852 8.883 8.883 0 00-.42-6.72 6.691 6.691 0 00-3.99-3.423 7.058 7.058 0 00-6.46 1.145 1.022 1.022 0 01-1.236 0 7.046 7.046 0 00-6.46-1.145 6.69 6.69 0 00-4.027 3.41 8.96 8.96 0 00-.396 6.696 15.374 15.374 0 003.706 5.84 46.262 46.262 0 008.054 6.291c.37.261.532.735.403 1.173a1.04 1.04 0 01-.97.753.987.987 0 01-.57-.176 48.026 48.026 0 01-8.387-6.557 17.31 17.31 0 01-4.163-6.67 11.124 11.124 0 01.519-8.306 8.691 8.691 0 015.2-4.467 9.191 9.191 0 017.721 1.032zm5.279 4.14h.157c1.842.592 3.153 2.256 3.323 4.216l.008.164c-.007.218-.081.43-.215.604a1.008 1.008 0 01-.683.39 1.041 1.041 0 01-1.161-.906 2.76 2.76 0 00-1.902-2.517 1.067 1.067 0 01-.436-1.227c.149-.463.59-.762 1.066-.724h-.157z"/></svg><svg viewBox="0 0 20 20" id="Search" xmlns="http://www.w3.org/2000/svg"><path d="M18.78 17.746l-3.094-3.025-.072-.11a.725.725 0 00-1.023 0c-2.63 2.412-6.68 2.543-9.467.306C2.337 12.681 1.68 8.77 3.588 5.78c1.908-2.99 5.79-4.134 9.07-2.671 3.28 1.463 4.941 5.077 3.882 8.447a.7.7 0 00.164.694.74.74 0 00.697.209.723.723 0 00.533-.486c1.266-3.998-.646-8.301-4.5-10.125C9.582.023 4.944 1.226 2.52 4.677.098 8.128.618 12.792 3.744 15.652c3.126 2.86 7.92 3.056 11.282.463l2.739 2.679a.737.737 0 001.023 0 .705.705 0 000-1.009l-.008-.04z"/></svg><svg viewBox="0 0 20 20" id="burger" xmlns="http://www.w3.org/2000/svg"><path d="M18.75 16.25H1.25a1.25 1.25 0 100 2.5h17.5a1.25 1.25 0 100-2.5zM18.75 8.75H1.25a1.25 1.25 0 100 2.5h17.5a1.25 1.25 0 100-2.5zM18.75 1.25H1.25a1.25 1.25 0 000 2.5h17.5a1.25 1.25 0 100-2.5z"/></svg><svg viewBox="0 0 18 20" id="calendar" xmlns="http://www.w3.org/2000/svg"><path d="M12.791 0a.712.712 0 01.661.735V1.77C16.461 2.062 18 3.725 18 6.714v8.27C18 18.312 16.104 20 12.374 20H5.626C1.896 20 0 18.31 0 14.985v-8.27C0 4.724.678 3.3 2.07 2.468l.097-.056a.685.685 0 01.635.029.71.71 0 01.35.655.707.707 0 01-.422.61c-.921.548-1.356 1.504-1.356 3.007v.266H14.06c.38 0 .687.313.687.699a.693.693 0 01-.687.698H1.374v6.608c0 2.538 1.235 3.59 4.252 3.609h6.748c2.974 0 4.243-1.08 4.243-3.618v-8.27c0-2.212-.965-3.282-3.165-3.538v.672a.7.7 0 01-.715.606.701.701 0 01-.667-.66V.674l.012-.11a.702.702 0 01.21-.38.68.68 0 01.5-.182zm.396 14.197l.11.007c.19.024.369.111.506.25a.892.892 0 01.258.628c0 .489-.39.885-.87.885a.877.877 0 01-.87-.885c0-.489.39-.885.87-.885h-.004zm-4.17 0l.11.007a.88.88 0 01.76.878c0 .489-.39.885-.87.885a.877.877 0 01-.87-.885c0-.489.39-.885.87-.885zm-4.169 0l.11.007c.19.024.369.111.506.25a.892.892 0 01.258.628c0 .489-.39.885-.87.885a.877.877 0 01-.87-.885c0-.489.39-.885.87-.885h-.004zm8.339-3.582l.11.007c.19.024.369.11.506.25a.892.892 0 01.258.628c0 .488-.39.884-.87.884a.877.877 0 01-.87-.884c0-.489.39-.885.87-.885h-.004zm-4.17 0l.11.007a.88.88 0 01.76.878c0 .488-.39.884-.87.884a.877.877 0 01-.87-.884c0-.489.39-.885.87-.885zm-4.169 0l.11.007c.19.024.369.11.506.25a.892.892 0 01.258.628c0 .488-.39.884-.87.884a.877.877 0 01-.87-.884c0-.489.39-.885.87-.885h-.004zM5.239.106a.7.7 0 01.691.63v.963h3.93c.38 0 .688.313.688.699a.693.693 0 01-.687.699H5.913v.699a.705.705 0 01-.204.497.68.68 0 01-.492.201l-.1-.01a.696.696 0 01-.57-.697V.735l.02-.105A.698.698 0 015.24.106z"/></svg><svg viewBox="0 0 28 27" id="cart" xmlns="http://www.w3.org/2000/svg"><g clip-path="url(#eclip0_281_8966)"><path d="M27.672 4.199a1.402 1.402 0 00-1.039-.46H7.241c-.755 0-1.367.591-1.367 1.32 0 .727.612 1.317 1.367 1.317h17.795l-1.192 7.441c-.131.833-.864 1.44-1.74 1.44H4.983L2.718 1.119C2.603.396 1.903-.094 1.16.017.41.127-.098.802.017 1.52l3.117 19.448a3.17 3.17 0 001.11 1.93 3.361 3.361 0 002.144.765h2.144v2.02c0 .727.612 1.318 1.367 1.318.754 0 1.367-.59 1.367-1.319v-2.02h7.995v2.02c0 .728.613 1.319 1.367 1.319.755 0 1.368-.59 1.368-1.319v-2.02h2.636c.754 0 1.367-.59 1.367-1.318 0-.727-.613-1.318-1.367-1.318H6.387a.559.559 0 01-.558-.459l-.427-2.673h16.702a4.59 4.59 0 002.926-1.044 4.306 4.306 0 001.515-2.627l1.438-8.965c.06-.384-.055-.77-.312-1.06z"/></g><defs><clipPath id="eclip0_281_8966"><path d="M0 0h28v27H0z"/></clipPath></defs></svg><svg viewBox="0 0 23 23" id="cart-item-remove" xmlns="http://www.w3.org/2000/svg"><g clip-path="url(#fclip0_361_9253)"><path d="M23 2.71L20.29 0 11.5 8.79 2.71 0 0 2.71l8.79 8.79L0 20.29 2.71 23l8.79-8.79L20.29 23 23 20.29l-8.79-8.79L23 2.71z"/></g><defs><clipPath id="fclip0_361_9253"><path d="M0 0h23v23H0z"/></clipPath></defs></svg><svg viewBox="0 0 20 20" id="clear-btn" xmlns="http://www.w3.org/2000/svg"><path d="M13.753 0C17.59 0 20 2.392 20 6.253v2.569a.757.757 0 01-.756.756h-.009V9.56a.765.765 0 01-.765-.763V6.253c0-3.053-1.67-4.723-4.714-4.723h-7.5C3.21 1.53 1.53 3.21 1.53 6.253v7.5c0 3.034 1.68 4.714 4.723 4.714h7.5c3.043 0 4.714-1.68 4.714-4.714a.765.765 0 111.53 0C20 17.608 17.608 20 13.756 20H6.253C2.392 20 0 17.608 0 13.756v-7.5C0 2.392 2.392 0 6.253 0h7.5zM7.815 11.145a.766.766 0 011.044 1.12l-.681.68a.764.764 0 01-1.063-.018l-.022-.016a.773.773 0 01.038-1.082l.684-.684zm-.573-4.254a.755.755 0 011.077-.006l1.865 1.866 1.697-1.698a.783.783 0 011.088.007c.054.054.1.115.135.183a.767.767 0 01-.122.925l-1.69 1.69 1.838 1.838a.77.77 0 01.028 1.091c-.004.006-.01.01-.015.016a.767.767 0 01-1.07.012l-.038-.037L7.255 8a.817.817 0 01-.013-1.108z"/></svg><svg viewBox="0 0 23 23" id="close-btn" xmlns="http://www.w3.org/2000/svg"><g clip-path="url(#hclip0_434_11298)"><path d="M23 2.71L20.29 0 11.5 8.79 2.71 0 0 2.71l8.79 8.79L0 20.29 2.71 23l8.79-8.79L20.29 23 23 20.29l-8.79-8.79L23 2.71z"/></g><defs><clipPath id="hclip0_434_11298"><path d="M0 0h23v23H0z"/></clipPath></defs></svg><svg viewBox="0 0 20 20" id="close-dis" xmlns="http://www.w3.org/2000/svg"><path d="M13.753 0C17.59 0 20 2.392 20 6.253v2.569a.757.757 0 01-.756.756h-.009V9.56a.765.765 0 01-.765-.763V6.253c0-3.053-1.67-4.723-4.714-4.723h-7.5C3.21 1.53 1.53 3.21 1.53 6.253v7.5c0 3.034 1.68 4.714 4.723 4.714h7.5c3.043 0 4.714-1.68 4.714-4.714a.765.765 0 111.53 0C20 17.608 17.608 20 13.756 20H6.253C2.392 20 0 17.608 0 13.756v-7.5C0 2.392 2.392 0 6.253 0h7.5zM7.815 11.145a.766.766 0 011.044 1.12l-.681.68a.764.764 0 01-1.063-.018l-.022-.016a.773.773 0 01.038-1.082l.684-.684zm-.573-4.254a.755.755 0 011.077-.006l1.865 1.866 1.697-1.698a.783.783 0 011.088.007c.054.054.1.115.135.183a.767.767 0 01-.122.925l-1.69 1.69 1.838 1.838a.77.77 0 01.028 1.091c-.004.006-.01.01-.015.016a.767.767 0 01-1.07.012l-.038-.037L7.255 8a.817.817 0 01-.013-1.108z"/></svg><svg viewBox="0 0 20 20" id="facebook" xmlns="http://www.w3.org/2000/svg"><g clip-path="url(#jclip0_320_9080)"><path d="M13.33 3.32h1.826V.14a23.576 23.576 0 00-2.66-.14C9.863 0 8.06 1.656 8.06 4.7v2.8H5.155v3.555H8.06V20h3.561v-8.944h2.788l.442-3.555h-3.23V5.05c0-1.027.277-1.73 1.709-1.73z"/></g><defs><clipPath id="jclip0_320_9080"><path d="M0 0h20v20H0z"/></clipPath></defs></svg><svg viewBox="0 0 14 22" id="ok" xmlns="http://www.w3.org/2000/svg"><path d="M7 3.328A2.354 2.354 0 019.352 5.68 2.353 2.353 0 017 8.027 2.353 2.353 0 014.648 5.68 2.354 2.354 0 017 3.328zm0 8.027a5.684 5.684 0 005.68-5.675A5.685 5.685 0 007 0a5.681 5.681 0 00-5.676 5.68A5.68 5.68 0 007 11.355zm2.297 4.633a10.706 10.706 0 003.297-1.367 1.664 1.664 0 10-1.774-2.816 7.215 7.215 0 01-7.644 0 1.664 1.664 0 00-1.77 2.816 10.707 10.707 0 003.297 1.367L1.527 19.16a1.664 1.664 0 002.356 2.352L7 18.395l3.121 3.117c.649.652 1.7.652 2.352 0a1.664 1.664 0 000-2.352l-3.176-3.172z"/></svg><svg viewBox="0 0 24 24" id="twitter" xmlns="http://www.w3.org/2000/svg"><path d="M22.4 5.55a8.519 8.519 0 01-2.451.672 4.275 4.275 0 001.876-2.361 8.557 8.557 0 01-2.71 1.036 4.268 4.268 0 00-7.271 3.891 12.115 12.115 0 01-8.797-4.46 4.257 4.257 0 00-.577 2.147c0 1.48.753 2.787 1.898 3.551a4.259 4.259 0 01-1.933-.533v.053a4.268 4.268 0 003.423 4.184 4.269 4.269 0 01-1.927.074 4.273 4.273 0 003.987 2.964 8.559 8.559 0 01-6.319 1.767 12.081 12.081 0 006.542 1.917c7.85 0 12.14-6.502 12.14-12.142 0-.184-.003-.368-.011-.552A8.684 8.684 0 0022.4 5.55z"/></svg><svg viewBox="0 0 30 29" id="user" xmlns="http://www.w3.org/2000/svg"><g clip-path="url(#mclip0_281_8973)"><path d="M14.994 0C10.33 0 6.539 3.665 6.539 8.173c0 4.509 3.79 8.173 8.455 8.173 4.664 0 8.455-3.664 8.455-8.173C23.449 3.665 19.658 0 14.994 0zm0 13.509c-3.047 0-5.526-2.396-5.526-5.341 0-2.946 2.485-5.336 5.526-5.336 3.04 0 5.525 2.396 5.525 5.341 0 2.946-2.478 5.336-5.525 5.336zM28.47 24.05c-.762-2.713-2.355-5.098-4.611-6.888a1.502 1.502 0 00-2.063.193 1.386 1.386 0 00.2 1.994c1.78 1.421 3.046 3.302 3.644 5.443.123.447-.07.776-.194.94a1.174 1.174 0 01-.92.442c-.808 0-1.464.634-1.464 1.416 0 .781.656 1.416 1.465 1.416a4.107 4.107 0 003.246-1.552c.773-.98 1.03-2.22.697-3.404zM19.265 26.168H5.466c-.492 0-.779-.272-.908-.436a1.078 1.078 0 01-.193-.98c.603-2.118 1.857-3.988 3.62-5.392a1.386 1.386 0 00.2-1.994 1.497 1.497 0 00-2.062-.193c-2.233 1.785-3.82 4.14-4.582 6.831a3.837 3.837 0 00.69 3.45C3 28.434 4.184 29 5.467 29h13.8c.808 0 1.464-.634 1.464-1.416 0-.782-.656-1.416-1.465-1.416z"/></g><defs><clipPath id="mclip0_281_8973"><path d="M0 0h30v29H0z"/></clipPath></defs></svg><svg viewBox="0 0 20 20" id="vk" xmlns="http://www.w3.org/2000/svg"><g clip-path="url(#nclip0_320_9098)"><path d="M19.822 14.473c-.054-.09-.387-.813-1.987-2.298-1.675-1.555-1.45-1.303.568-3.992 1.229-1.637 1.72-2.637 1.566-3.065-.146-.407-1.05-.3-1.05-.3l-3.005.018s-.223-.03-.389.068c-.161.098-.265.323-.265.323s-.476 1.267-1.111 2.345c-1.339 2.274-1.875 2.394-2.094 2.253-.509-.329-.381-1.323-.381-2.028 0-2.204.333-3.123-.652-3.36-.327-.079-.567-.131-1.404-.14-1.072-.011-1.98.004-2.495.255-.342.167-.606.541-.445.562.199.027.65.122.888.447.309.418.297 1.361.297 1.361s.178 2.594-.413 2.916c-.407.222-.963-.23-2.157-2.293C4.682 6.488 4.22 5.319 4.22 5.319s-.088-.217-.247-.333c-.193-.142-.463-.187-.463-.187l-2.857.018s-.43.012-.587.199c-.14.166-.011.508-.011.508s2.238 5.235 4.77 7.874c2.324 2.418 4.962 2.26 4.962 2.26h1.195s.361-.04.545-.24c.17-.182.164-.524.164-.524s-.024-1.604.721-1.84c.734-.233 1.677 1.55 2.675 2.236.755.519 1.33.405 1.33.405l2.67-.037s1.398-.087.736-1.185z"/></g><defs><clipPath id="nclip0_320_9098"><path d="M0 0h20v20H0z"/></clipPath></defs></svg></svg>