<svg width="30" height="29" viewBox="0 0 30 29" fill="none" xmlns="http://www.w3.org/2000/svg">
<g clip-path="url(#clip0_281_8973)">
<path d="M14.9937 0C10.3296 0 6.53857 3.66465 6.53857 8.17324C6.53857 12.6818 10.3296 16.3465 14.9937 16.3465C19.6577 16.3465 23.4487 12.6818 23.4487 8.17324C23.4487 3.66465 19.6577 0 14.9937 0ZM14.9937 13.5088C11.9468 13.5088 9.46826 11.1129 9.46826 8.16758C9.46826 5.22227 11.9526 2.83203 14.9937 2.83203C18.0347 2.83203 20.519 5.22793 20.519 8.17324C20.519 11.1186 18.0405 13.5088 14.9937 13.5088Z" fill="#172542"/>
<path d="M28.47 24.0497C27.7082 21.3366 26.1145 18.952 23.8586 17.1622C23.2317 16.6638 22.3117 16.7544 21.7961 17.3548C21.2805 17.9608 21.3742 18.8501 21.9953 19.3485C23.7766 20.7702 25.0422 22.6507 25.6399 24.7917C25.7629 25.2391 25.5696 25.5677 25.4465 25.7319C25.2239 26.0095 24.8899 26.1737 24.5266 26.1737C23.718 26.1737 23.0617 26.8081 23.0617 27.5897C23.0617 28.3714 23.718 29.0057 24.5266 29.0057C25.8098 29.0057 26.9934 28.4393 27.7727 27.4538C28.5461 26.4739 28.8039 25.2335 28.47 24.0497Z" fill="#172542"/>
<path d="M19.2651 26.1679H5.46629C4.9741 26.1679 4.68699 25.8961 4.55809 25.7318C4.33543 25.4486 4.26512 25.0918 4.36473 24.7519C4.96824 22.6336 6.22215 20.7644 7.98582 19.3597C8.60692 18.8613 8.70067 17.9721 8.18504 17.366C7.66942 16.7599 6.7495 16.675 6.12254 17.1734C3.89012 18.9576 2.30223 21.3138 1.54051 24.0043C1.20067 25.2051 1.45262 26.4625 2.23192 27.4537C2.99949 28.4336 4.18309 29 5.46629 29H19.2651C20.0737 29 20.73 28.3656 20.73 27.584C20.73 26.8023 20.0737 26.1679 19.2651 26.1679Z" fill="#172542"/>
</g>
<defs>
<clipPath id="clip0_281_8973">
<rect width="30" height="29" fill="white" transform="translate(-0.000488281)"/>
</clipPath>
</defs>
</svg>
