<svg width="10" height="6" viewBox="0 0 10 6" fill="none" xmlns="http://www.w3.org/2000/svg">
<path d="M5.3902 5.83709L9.84025 1.29221C9.94325 1.1871 10 1.04677 10 0.897152C10 0.74753 9.94325 0.607207 9.84025 0.50209L9.51261 0.167391C9.29911 -0.0503999 8.95212 -0.0503999 8.73895 0.167391L5.00207 3.98384L1.26105 0.163156C1.15804 0.0580384 1.02072 -3.92497e-07 0.874302 -3.98897e-07C0.727717 -4.05304e-07 0.590401 0.0580384 0.487312 0.163156L0.159754 0.497854C0.0567474 0.603055 -3.24905e-08 0.743295 -3.90307e-08 0.892917C-4.55708e-08 1.04254 0.0567474 1.18286 0.159754 1.28798L4.61386 5.83709C4.7172 5.94246 4.85516 6.00033 5.00183 6C5.14906 6.00033 5.28695 5.94246 5.3902 5.83709Z" fill="#172542"/>
</svg>
