<svg width="21" height="20" viewBox="0 0 21 20" fill="none" xmlns="http://www.w3.org/2000/svg">
<g clip-path="url(#clip0_688_35916)">
<path d="M20.7557 3.11019C20.5588 2.89535 20.2758 2.77035 19.9764 2.77035H5.43225C4.86624 2.77035 4.40686 3.20785 4.40686 3.74691C4.40686 4.28597 4.86624 4.72347 5.43225 4.72347H18.7787L17.8846 10.2352C17.7862 10.8524 17.2365 11.3016 16.5803 11.3016H3.73831L2.04026 0.82894C1.95413 0.293783 1.42913 -0.0694982 0.871314 0.0125331C0.3094 0.0945644 -0.0720453 0.594564 0.0140875 1.12581L2.35198 15.5321C2.44221 16.0868 2.73753 16.5946 3.1846 16.9618C3.63167 17.3289 4.20588 17.5282 4.79241 17.5282H6.40022V19.0243C6.40022 19.5633 6.8596 20.0008 7.42561 20.0008C7.99163 20.0008 8.451 19.5633 8.451 19.0243V17.5282H14.4475V19.0243C14.4475 19.5633 14.9069 20.0008 15.4729 20.0008C16.0389 20.0008 16.4983 19.5633 16.4983 19.0243V17.5282H18.4752C19.0412 17.5282 19.5006 17.0907 19.5006 16.5516C19.5006 16.0125 19.0412 15.575 18.4752 15.575H4.79241C4.58323 15.575 4.40686 15.4305 4.37405 15.2352L4.05413 13.2547H16.5803C17.3842 13.2547 18.1635 12.9813 18.7746 12.4813C19.3858 11.9813 19.7877 11.2899 19.9108 10.536L20.9895 3.89535C21.0346 3.61019 20.9485 3.32503 20.7557 3.11019V3.11019Z" fill="#172542"/>
</g>
<defs>
<clipPath id="clip0_688_35916">
<rect width="21" height="20" fill="white"/>
</clipPath>
</defs>
</svg>
