<svg width="20" height="20" viewBox="0 0 20 20" fill="none" xmlns="http://www.w3.org/2000/svg">
<path d="M13.753 0C17.59 0 20 2.392 20 6.253V8.822C20 9.239 19.661 9.578 19.244 9.578H19.235V9.56C18.813 9.56 18.471 9.219 18.47 8.797V6.253C18.47 3.2 16.8 1.53 13.756 1.53H6.256C3.21 1.53 1.53 3.21 1.53 6.253V13.753C1.53 16.787 3.21 18.467 6.253 18.467H13.753C16.796 18.467 18.467 16.787 18.467 13.753C18.467 13.331 18.809 12.988 19.232 12.988C19.654 12.988 19.997 13.331 19.997 13.753C20 17.608 17.608 20 13.756 20H6.253C2.392 20 0 17.608 0 13.756V6.256C0 2.392 2.392 0 6.253 0H13.753ZM7.8148 11.1454C8.1238 10.8564 8.6078 10.8744 8.8968 11.1824C9.1848 11.4924 9.1678 11.9764 8.8588 12.2644L8.1778 12.9454C7.8768 13.2274 7.4068 13.2194 7.1148 12.9274L7.0928 12.9114C6.8088 12.6004 6.8258 12.1194 7.1308 11.8294L7.8148 11.1454ZM7.2416 6.8913C7.5336 6.5923 8.0116 6.5863 8.3106 6.8783C8.3136 6.8803 8.3156 6.8823 8.3186 6.8853L10.1836 8.7513L11.8806 7.0533C12.1856 6.7623 12.6666 6.7653 12.9686 7.0603C13.0226 7.1143 13.0686 7.1753 13.1036 7.2433C13.2766 7.5443 13.2266 7.9223 12.9816 8.1683L11.2916 9.8573L13.1296 11.6963C13.4396 11.9893 13.4516 12.4783 13.1576 12.7873C13.1536 12.7933 13.1476 12.7973 13.1426 12.8033C12.8486 13.0963 12.3736 13.1023 12.0726 12.8153L12.0346 12.7783L7.2546 7.9993C6.9626 7.6893 6.9566 7.2073 7.2416 6.8913Z" fill="#E70A0A"/>
</svg>
