<svg width="20" height="20" viewBox="0 0 20 20" fill="none" xmlns="http://www.w3.org/2000/svg">
<path d="M18.4375 10.3172V7.97348H1.5625V14.2188C1.5625 15.0803 2.26349 15.7812 3.125 15.7812H16.875C17.7365 15.7812 18.4375 15.0803 18.4375 14.2188C18.4375 13.7872 18.7872 13.4375 19.2188 13.4375C19.6503 13.4375 20 13.7872 20 14.2188C20 15.9419 18.5982 17.3438 16.875 17.3438H3.125C1.40182 17.3438 0 15.9419 0 14.2188V5.78125C0 4.05807 1.40182 2.65625 3.125 2.65625H16.875C18.5982 2.65625 20 4.05807 20 5.78125V10.3172C20 10.7487 19.6503 11.0985 19.2188 11.0985C18.7872 11.0985 18.4375 10.7487 18.4375 10.3172ZM18.4375 6.41098V5.78125C18.4375 4.91974 17.7365 4.21875 16.875 4.21875H3.125C2.26349 4.21875 1.5625 4.91974 1.5625 5.78125V6.41098H18.4375ZM3.90625 9.53598C3.47473 9.53598 3.125 9.88571 3.125 10.3172C3.125 10.7487 3.47473 11.0985 3.90625 11.0985H10.3516C10.7831 11.0985 11.1328 10.7487 11.1328 10.3172C11.1328 9.88571 10.7831 9.53598 10.3516 9.53598H3.90625Z" fill="#172542"/>
</svg>
