<svg width="25" height="37" viewBox="0 0 25 37" fill="none" xmlns="http://www.w3.org/2000/svg">
<g clip-path="url(#clip0_281_8797)">
<path d="M3.75732 7.65494L8.37974 3.11499L12.9973 7.67991L8.35514 12.2198L3.75732 7.65494Z" fill="#5DAA1A"/>
<path d="M16.1699 0.0415039C16.7379 1.28099 16.7379 1.28099 16.7379 1.28099C14.0748 2.5317 13.3908 7.76117 13.366 9.67792C13.3343 21.3784 13.3343 21.3784 13.3343 21.3784C11.9749 21.3946 11.9749 21.3946 11.9749 21.3946C12.0067 9.61434 12.0067 9.61434 12.0067 9.61434C11.9879 9.29482 12.1654 1.92754 16.1699 0.0415039Z" fill="#5DAA1A"/>
<path d="M24.0933 13.46L0.963862 13.3975L0.902344 36.1595L24.0318 36.222L24.0933 13.46Z" fill="#E33226"/>
<path d="M12.6797 15.7451L21.5847 15.7692L21.5603 24.7941L12.6797 15.7451Z" fill="white"/>
</g>
<defs>
<clipPath id="clip0_281_8797">
<rect width="25" height="37" fill="white"/>
</clipPath>
</defs>
</svg>
