<svg width="120" height="39" viewBox="0 0 120 39" fill="none" xmlns="http://www.w3.org/2000/svg">
<g clip-path="url(#clip0_323_8370)">
<path d="M3.75732 7.65494L8.37974 3.11499L12.9973 7.67991L8.35514 12.2198L3.75732 7.65494Z" fill="#5DAA1A"/>
<path d="M16.1699 0.0415039C16.7379 1.28099 16.7379 1.28099 16.7379 1.28099C14.0748 2.5317 13.3908 7.76117 13.366 9.67792C13.3343 21.3784 13.3343 21.3784 13.3343 21.3784C11.9749 21.3946 11.9749 21.3946 11.9749 21.3946C12.0067 9.61434 12.0067 9.61434 12.0067 9.61434C11.9879 9.29482 12.1654 1.92754 16.1699 0.0415039Z" fill="#5DAA1A"/>
<path d="M24.0933 13.46L0.963862 13.3975L0.902344 36.1595L24.0318 36.222L24.0933 13.46Z" fill="#E33226"/>
<path d="M12.6797 15.7451L21.5847 15.7692L21.5603 24.7941L12.6797 15.7451Z" fill="white"/>
</g>
<path d="M38.8 18.66V20.06H34.2V24H38.64V25.4H34.2V32H32.72V18.66H38.8ZM47.552 24.88V23.7H48.992V32H47.552V30.84C46.832 31.7733 45.8854 32.24 44.712 32.24C43.592 32.24 42.6387 31.8533 41.852 31.08C41.0654 30.3067 40.672 29.2267 40.672 27.84C40.672 26.48 41.0587 25.42 41.832 24.66C42.6187 23.8867 43.5787 23.5 44.712 23.5C45.912 23.5 46.8587 23.96 47.552 24.88ZM44.872 24.78C44.112 24.78 43.4654 25.0533 42.932 25.6C42.412 26.1333 42.152 26.88 42.152 27.84C42.152 28.76 42.392 29.5133 42.872 30.1C43.3654 30.6733 44.032 30.96 44.872 30.96C45.712 30.96 46.3787 30.66 46.872 30.06C47.3787 29.46 47.632 28.7267 47.632 27.86C47.632 26.8733 47.352 26.1133 46.792 25.58C46.232 25.0467 45.592 24.78 44.872 24.78ZM52.7194 32V23.7H54.1594V24.6C54.626 23.8667 55.2527 23.5 56.0394 23.5C56.4394 23.5 56.866 23.6133 57.3194 23.84L56.6394 25.14C56.3727 24.9533 56.0927 24.86 55.7994 24.86C55.2927 24.86 54.906 25.0333 54.6394 25.38C54.3194 25.8067 54.1594 26.5533 54.1594 27.62V32H52.7194ZM61.0773 30.84V32H59.6373V17.42H61.0773V24.86C61.8107 23.9533 62.7573 23.5 63.9173 23.5C65.1573 23.5 66.1373 23.94 66.8573 24.82C67.5907 25.6867 67.9573 26.7133 67.9573 27.9C67.9573 29.1 67.5973 30.1267 66.8773 30.98C66.1573 31.82 65.1907 32.24 63.9773 32.24C62.764 32.24 61.7973 31.7733 61.0773 30.84ZM63.7773 30.96C64.5907 30.96 65.244 30.6667 65.7373 30.08C66.2307 29.48 66.4773 28.7533 66.4773 27.9C66.4773 26.94 66.204 26.18 65.6573 25.62C65.1107 25.06 64.4773 24.78 63.7573 24.78C63.0373 24.78 62.3973 25.06 61.8373 25.62C61.2773 26.18 60.9973 26.9333 60.9973 27.88C60.9973 28.7467 61.2507 29.48 61.7573 30.08C62.2773 30.6667 62.9507 30.96 63.7773 30.96ZM77.5247 24.88V23.7H78.9647V32H77.5247V30.84C76.8047 31.7733 75.858 32.24 74.6847 32.24C73.5647 32.24 72.6114 31.8533 71.8247 31.08C71.038 30.3067 70.6447 29.2267 70.6447 27.84C70.6447 26.48 71.0314 25.42 71.8047 24.66C72.5914 23.8867 73.5514 23.5 74.6847 23.5C75.8847 23.5 76.8314 23.96 77.5247 24.88ZM74.8447 24.78C74.0847 24.78 73.438 25.0533 72.9047 25.6C72.3847 26.1333 72.1247 26.88 72.1247 27.84C72.1247 28.76 72.3647 29.5133 72.8447 30.1C73.338 30.6733 74.0047 30.96 74.8447 30.96C75.6847 30.96 76.3514 30.66 76.8447 30.06C77.3514 29.46 77.6047 28.7267 77.6047 27.86C77.6047 26.8733 77.3247 26.1133 76.7647 25.58C76.2047 25.0467 75.5647 24.78 74.8447 24.78ZM88.72 32V18.66H91.44C93.4933 18.66 95.1333 19.18 96.36 20.22C97.88 21.4867 98.64 23.1933 98.64 25.34C98.64 27.42 97.86 29.1267 96.3 30.46C95.66 31.0067 94.9733 31.4 94.24 31.64C93.5067 31.88 92.5667 32 91.42 32H88.72ZM90.2 20.06V30.6H91.5C93.0867 30.6 94.36 30.2 95.32 29.4C96.52 28.3867 97.12 27.0333 97.12 25.34C97.12 23.74 96.6067 22.46 95.58 21.5C94.5533 20.54 93.1933 20.06 91.5 20.06H90.2ZM108.157 29.22L109.357 29.88C109.077 30.4133 108.737 30.86 108.337 31.22C107.577 31.9 106.657 32.24 105.577 32.24C104.457 32.24 103.49 31.88 102.677 31.16C101.877 30.4267 101.477 29.34 101.477 27.9C101.477 26.6333 101.837 25.5867 102.557 24.76C103.29 23.92 104.27 23.5 105.497 23.5C106.883 23.5 107.93 24.0067 108.637 25.02C109.197 25.82 109.457 26.86 109.417 28.14H102.957C102.97 28.98 103.23 29.66 103.737 30.18C104.243 30.7 104.863 30.96 105.597 30.96C106.25 30.96 106.817 30.76 107.297 30.36C107.67 30.04 107.957 29.66 108.157 29.22ZM103.057 26.94H107.937C107.817 26.2867 107.53 25.7667 107.077 25.38C106.637 24.98 106.11 24.78 105.497 24.78C104.897 24.78 104.363 24.9867 103.897 25.4C103.443 25.8 103.163 26.3133 103.057 26.94ZM111.426 23.7H113.026L115.506 29.3L117.986 23.7H119.586L115.506 32.54L111.426 23.7Z" fill="#172542"/>
<defs>
<clipPath id="clip0_323_8370">
<rect width="25" height="37" fill="white"/>
</clipPath>
</defs>
</svg>
