<svg width="12" height="12" viewBox="0 0 12 12" fill="none" xmlns="http://www.w3.org/2000/svg">
<path d="M8.33344 1.2C7.84594 1.65234 7.40578 2.12789 7.01578 2.60555C6.37687 1.72547 5.58469 0.832734 4.6875 0C2.38453 2.1368 0.75 4.92094 0.75 6.6C0.75 9.58242 3.10055 12 6 12C8.89945 12 11.25 9.58242 11.25 6.6C11.25 5.35148 10.0317 2.77641 8.33344 1.2ZM7.87711 9.18398C7.36945 9.5393 6.74344 9.75 6.06703 9.75C4.37602 9.75 3 8.63109 3 6.81445C3 5.90953 3.56977 5.11219 4.70602 3.75C4.86844 3.93703 7.02234 6.68766 7.02234 6.68766L8.39648 5.12016C8.49352 5.2807 8.58187 5.43773 8.66062 5.5882C9.30164 6.81141 9.03117 8.37656 7.87711 9.18398Z" fill="#FDC300"/>
</svg>
