<svg width="20" height="22" viewBox="0 0 20 22" fill="none" xmlns="http://www.w3.org/2000/svg">
<path d="M10.0392 0.480469C15.5526 0.500284 20.0215 4.61439 19.9999 9.65039V9.75041C19.9255 13.3493 17.5598 16.3358 15.5887 18.207C15.0278 18.742 14.4307 19.2553 13.815 19.7347C13.4462 20.0225 12.8925 19.9828 12.5774 19.646C12.2623 19.3081 12.3067 18.8024 12.6755 18.5146C13.2458 18.0701 13.8005 17.5927 14.3222 17.0954C16.0763 15.4309 18.1796 12.7992 18.2437 9.72116C18.2612 5.49288 14.5784 2.10063 10.0319 2.08365H9.99992C5.46897 2.08365 1.77375 5.44287 1.75618 9.58434C1.83366 11.6301 2.58986 13.5748 3.94418 15.2063C5.52475 17.1313 7.92246 19.1694 10.2014 20.5263C10.6084 20.7679 10.7231 21.2642 10.4576 21.636C10.2902 21.8719 10.0082 22.0002 9.721 22.0002C9.55674 22.0002 9.39146 21.9587 9.2427 21.87C6.80263 20.4178 4.23447 18.2343 2.5413 16.1726C0.970034 14.2788 0.0909084 12.0188 0 9.64001C0.021694 4.554 4.5041 0.480469 9.99992 0.480469H10.0392ZM9.99682 6.27296C12.0949 6.27296 13.8026 7.83178 13.8026 9.74918C13.8026 11.6656 12.0949 13.2245 9.99682 13.2245C7.8987 13.2245 6.19107 11.6656 6.19107 9.74918C6.19107 9.30569 6.58466 8.94712 7.06916 8.94712C7.55366 8.94712 7.94725 9.30569 7.94725 9.74918C7.94725 10.7805 8.86667 11.6213 9.99682 11.6213C11.127 11.6213 12.0464 10.7805 12.0464 9.74918C12.0464 8.71688 11.127 7.87613 9.99682 7.87613C9.51232 7.87613 9.11873 7.51757 9.11873 7.07502C9.11873 6.63152 9.51232 6.27296 9.99682 6.27296Z" fill="#172542"/>
</svg>
