<svg width="9" height="4" viewBox="0 0 9 4" fill="none" xmlns="http://www.w3.org/2000/svg">
<path d="M5.31156 3.89139L8.87218 0.861476C8.95459 0.791398 9 0.697849 9 0.598101C9 0.498353 8.95459 0.404805 8.87218 0.334726L8.61002 0.111594C8.4392 -0.0335999 8.16156 -0.0335999 7.991 0.111594L5.00101 2.65589L2.0077 0.108771C1.92528 0.0386922 1.81541 -3.14048e-07 1.69825 -3.19169e-07C1.58097 -3.24296e-07 1.4711 0.0386922 1.38861 0.10877L1.12652 0.331903C1.0441 0.402037 0.998698 0.49553 0.998698 0.595278C0.998698 0.695026 1.0441 0.788574 1.12652 0.858653L4.69039 3.89139C4.77307 3.96164 4.88346 4.00022 5.00081 4C5.11862 4.00022 5.22895 3.96164 5.31156 3.89139Z" fill="#172542"/>
</svg>
