<svg width="20" height="24" viewBox="0 0 20 24" fill="none" xmlns="http://www.w3.org/2000/svg">
<path d="M10.0392 0C15.5526 0.0220994 20.0215 4.61037 19.9999 10.2268V10.3383C19.9255 14.352 17.5598 17.6827 15.5887 19.7695C15.0278 20.3662 14.4307 20.9387 13.815 21.4733C13.4462 21.7943 12.8925 21.7501 12.5774 21.3744C12.2623 20.9976 12.3067 20.4336 12.6755 20.1126C13.2458 19.6169 13.8005 19.0845 14.3222 18.5299C16.0763 16.6735 18.1796 13.7385 18.2437 10.3057C18.2612 5.59011 14.5784 1.80689 10.0319 1.78795H9.99992C5.46897 1.78795 1.77375 5.53433 1.75618 10.1531C1.83366 12.4346 2.58986 14.6035 3.94418 16.423C5.52475 18.5699 7.92246 20.8429 10.2014 22.3562C10.6084 22.6256 10.7231 23.1792 10.4576 23.5938C10.2902 23.8569 10.0082 24 9.721 24C9.55674 24 9.39146 23.9537 9.2427 23.8548C6.80263 22.2352 4.23447 19.8001 2.5413 17.5007C0.970034 15.3886 0.0909084 12.8682 0 10.2152C0.021694 4.54302 4.5041 0 9.99992 0H10.0392ZM9.99682 6.46009C12.0949 6.46009 13.8026 8.19858 13.8026 10.337C13.8026 12.4743 12.0949 14.2128 9.99682 14.2128C7.8987 14.2128 6.19107 12.4743 6.19107 10.337C6.19107 9.84236 6.58466 9.44246 7.06916 9.44246C7.55366 9.44246 7.94725 9.84236 7.94725 10.337C7.94725 11.4872 8.86667 12.4248 9.99682 12.4248C11.127 12.4248 12.0464 11.4872 12.0464 10.337C12.0464 9.18569 11.127 8.24804 9.99682 8.24804C9.51232 8.24804 9.11873 7.84815 9.11873 7.35459C9.11873 6.85998 9.51232 6.46009 9.99682 6.46009Z" fill="#FAD89D"/>
</svg>
