<svg width="10" height="10" viewBox="0 0 10 10" fill="none" xmlns="http://www.w3.org/2000/svg">
<path d="M2.8451 2.84515C3.49588 2.19436 3.49588 1.13888 2.8451 0.488092C2.19432 -0.162697 1.13886 -0.162697 0.488083 0.488092C-0.162694 1.13888 -0.162694 2.19436 0.488083 2.84515C1.13912 3.4962 2.19432 3.4962 2.8451 2.84515ZM9.51172 7.15485C8.86094 6.50406 7.80548 6.50406 7.15471 7.15485C6.50393 7.80564 6.50393 8.86112 7.15471 9.51191C7.80548 10.1627 8.86094 10.1627 9.51172 9.51191C10.1628 8.86112 10.1628 7.8059 9.51172 7.15485ZM9.4612 1.12794L8.87214 0.538874C8.54662 0.213349 8.01902 0.213349 7.69377 0.538874L0.538864 7.69392C0.213345 8.01944 0.213345 8.54705 0.538864 8.87232L1.12792 9.46139C1.45344 9.78691 1.98104 9.78691 2.3063 9.46139L9.4612 2.30635C9.78672 1.98108 9.78672 1.45347 9.4612 1.12794Z" fill="#E70A0A"/>
</svg>
