<svg width="65" height="43" viewBox="0 0 65 43" fill="none" xmlns="http://www.w3.org/2000/svg">
<rect y="15.2703" width="59" height="28" rx="14" transform="rotate(-15 0 15.2703)" fill="#FFD285"/>
<path d="M22.5268 19.9348L21.8444 21.5919C21.244 21.1233 20.6038 20.9801 19.9238 21.1624C19.4292 21.2949 19.1018 21.5151 18.9413 21.8231C18.7782 22.1209 18.7394 22.4294 18.825 22.7488C18.8995 23.027 19.0698 23.2298 19.3359 23.3573C19.5421 23.4677 20.0067 23.553 20.7296 23.6133C21.8435 23.6903 22.6314 23.8491 23.0935 24.0897C23.8215 24.4578 24.3084 25.1004 24.5541 26.0174C24.8247 27.0271 24.7093 27.9359 24.208 28.7439C23.7142 29.5387 22.9367 30.0783 21.8755 30.3627C20.3919 30.7602 19.0331 30.4286 17.7991 29.3679L18.7774 27.764C19.1283 28.1669 19.535 28.4279 19.9976 28.5469C20.4601 28.6659 20.8975 28.6702 21.3096 28.5597C21.7732 28.4355 22.1199 28.2046 22.3497 27.8669C22.5767 27.519 22.6336 27.1338 22.5205 26.7114C22.4238 26.3508 22.2071 26.0775 21.8702 25.8917C21.5622 25.7313 20.9639 25.6211 20.0754 25.561C19.2439 25.5077 18.5921 25.3621 18.1197 25.1243C17.4467 24.7966 17.0025 24.231 16.7871 23.4274C16.5635 22.5928 16.6564 21.806 17.0657 21.0668C17.4722 20.3174 18.2113 19.7991 19.2828 19.512C20.4471 19.2001 21.5284 19.341 22.5268 19.9348ZM27.4108 28.6311L26.5154 17.6237L27.9063 17.251L32.5092 23.2398L33.6246 15.7188L35.0156 15.3461L39.5583 25.3761L37.5183 25.9228L34.889 19.8193L33.8 27.0682L33.2436 27.2172L28.7998 21.4509L29.4509 28.0844L27.4108 28.6311ZM45.7754 13.7054L45.093 15.3624C44.4926 14.8939 43.8524 14.7507 43.1724 14.9329C42.6779 15.0654 42.3504 15.2857 42.19 15.5937C42.0268 15.8914 41.988 16.2 42.0736 16.5194C42.1481 16.7975 42.3184 17.0004 42.5845 17.1279C42.7907 17.2382 43.2553 17.3236 43.9782 17.3839C45.0921 17.4609 45.8801 17.6197 46.3421 17.8603C47.0702 18.2284 47.5571 18.8709 47.8028 19.7879C48.0733 20.7976 47.9579 21.7065 47.4566 22.5144C46.9629 23.3093 46.1854 23.8489 45.1241 24.1333C43.6405 24.5308 42.2817 24.1992 41.0478 23.1384L42.026 21.5346C42.3769 21.9375 42.7836 22.1984 43.2462 22.3174C43.7087 22.4364 44.1461 22.4407 44.5582 22.3303C45.0219 22.2061 45.3686 21.9751 45.5983 21.6375C45.8254 21.2895 45.8823 20.9043 45.7691 20.4819C45.6725 20.1213 45.4557 19.8481 45.1188 19.6623C44.8108 19.5019 44.2125 19.3916 43.324 19.3315C42.4926 19.2783 41.8407 19.1327 41.3684 18.8948C40.6953 18.5672 40.2511 18.0016 40.0358 17.1979C39.8121 16.3633 39.905 15.5765 40.3143 14.8374C40.7209 14.088 41.4599 13.5697 42.5314 13.2826C43.6957 12.9706 44.777 13.1115 45.7754 13.7054Z" fill="#172542"/>
</svg>
