<svg width="24" height="24" viewBox="0 0 24 24" fill="none" xmlns="http://www.w3.org/2000/svg">
<path d="M21.6223 3.24745C21.2813 2.96132 20.7456 2.92032 20.1917 3.14018C20.1914 3.14029 20.1911 3.14035 20.1908 3.14035C20.1905 3.14035 20.1904 3.14033 20.1901 3.14044C19.6034 3.37345 3.69606 10.1235 3.0484 10.3993C2.93059 10.4398 1.90166 10.8196 2.00765 11.6656C2.10226 12.4284 2.92922 12.7443 3.03021 12.7807C5.5692 13.6408 7.53392 15.6743 8.31912 18.2374C8.42242 18.5746 8.50495 18.8425 8.55194 18.9921C8.6884 19.4263 8.91083 19.9969 9.30066 20.1144C9.64273 20.2449 9.98298 20.1256 10.2031 19.9546C11.6324 18.6432 13.7981 18.5508 15.3338 19.7356L16.6687 20.7655L16.7638 20.8218C17.0349 20.9406 17.2946 21 17.5425 21C17.7341 21 17.9178 20.9645 18.0934 20.8934C18.8679 20.5787 19.0361 19.6098 19.1957 18.7892L21.938 4.6879C22.12 3.8689 21.8671 3.4522 21.6223 3.24745ZM10.7896 14.537C10.6927 14.6441 10.6164 14.7691 10.5652 14.9042C10.1483 16.0041 8.56993 15.9629 8.22859 14.8373L8.16853 14.6392C8.01592 14.136 8.19795 13.5913 8.62245 13.2809L9.24648 12.8246C10.3722 12.0014 11.7251 13.5026 10.7896 14.537Z" fill="#0088CC"/>
</svg>
