<svg width="20" height="20" viewBox="0 0 20 20" fill="none" xmlns="http://www.w3.org/2000/svg">
<path d="M10.0002 0C15.5144 0 20.0005 4.48511 20.0005 10.0002C20.0005 15.5144 15.5144 20.0005 10.0002 20.0005C6.87317 20.0005 3.9831 18.5775 2.07305 16.0984C1.82804 15.7794 1.88805 15.3224 2.20605 15.0784C2.52406 14.8324 2.97907 14.8934 3.22508 15.2104C4.85812 17.3304 7.32718 18.5465 10.0002 18.5465C14.7124 18.5465 18.5465 14.7134 18.5465 10.0002C18.5465 5.28813 14.7124 1.45404 10.0002 1.45404C5.28813 1.45404 1.45504 5.28813 1.45504 10.0002C1.45504 10.4383 1.48704 10.8733 1.55204 11.2993C1.61204 11.6953 1.34003 12.0663 0.943023 12.1273C0.544013 12.1933 0.175004 11.9163 0.115003 11.5193C0.039001 11.0213 0 10.5103 0 10.0002C0 4.48511 4.48611 0 10.0002 0ZM9.66134 5.10952C10.0623 5.10952 10.3884 5.43553 10.3884 5.83754V10.2837L13.8124 12.3257C14.1574 12.5317 14.2704 12.9777 14.0644 13.3227C13.9294 13.5497 13.6874 13.6767 13.4404 13.6767C13.3134 13.6767 13.1844 13.6437 13.0684 13.5747L9.28833 11.3207C9.06932 11.1887 8.93432 10.9517 8.93432 10.6957V5.83754C8.93432 5.43553 9.26033 5.10952 9.66134 5.10952Z" fill="#FAD89D"/>
</svg>
