<svg width="20" height="21" viewBox="0 0 20 21" fill="none" xmlns="http://www.w3.org/2000/svg">
<path d="M14.7257 12.427C14.1702 11.959 13.9137 11.8175 13.1467 11.357C12.8272 11.1655 12.3402 11 12.0847 11C11.9102 11 11.7012 11.1335 11.5732 11.2615C11.2452 11.5895 11.1377 12 10.5627 12C10.0002 12 9.01774 11.4275 8.31274 10.6875C7.57274 9.98251 7.00024 9.00001 7.00024 8.43751C7.00024 7.86251 7.40324 7.74751 7.73124 7.41901C7.85924 7.29151 8.00024 7.08251 8.00024 6.90801C8.00024 6.65251 7.83474 6.17301 7.64324 5.85351C7.18274 5.08601 7.04174 4.82951 6.57324 4.27451C6.41474 4.08651 6.23424 4.00051 6.04524 4.00001C5.72574 3.99951 5.30624 4.15801 5.02224 4.36951C4.59524 4.68801 4.14874 5.12151 4.02924 5.66151C4.01324 5.73501 4.00374 5.80901 4.00074 5.88301C3.97774 6.44551 4.19874 7.01651 4.43724 7.50001C4.99874 8.63951 5.74174 9.74251 6.55024 10.7275C6.80874 11.0425 7.09024 11.3355 7.38174 11.6185C7.66474 11.9095 7.95774 12.191 8.27274 12.45C9.25774 13.2585 10.3607 14.0015 11.5002 14.563C11.9792 14.799 12.5432 15.016 13.1002 15C13.1797 14.9975 13.2592 14.9885 13.3387 14.971C13.8787 14.852 14.3122 14.405 14.6307 13.978C14.8422 13.694 15.0007 13.275 15.0002 12.955C14.9997 12.766 14.9137 12.5855 14.7257 12.427ZM15.0002 10C14.7242 10 14.5002 9.77601 14.5002 9.50001V9.00001C14.5002 6.51901 12.4812 4.50001 10.0002 4.50001C9.72424 4.50001 9.50024 4.27601 9.50024 4.00001C9.50024 3.72401 9.72424 3.50001 10.0002 3.50001C13.0327 3.50001 15.5002 5.96751 15.5002 9.00001V9.50001C15.5002 9.77601 15.2762 10 15.0002 10ZM11.9292 9.00001C11.7072 9.00001 11.5042 8.85101 11.4457 8.62601C11.3087 8.10051 10.8987 7.69001 10.3752 7.55501C10.1077 7.48551 9.94724 7.21301 10.0162 6.94551C10.0852 6.67851 10.3572 6.51801 10.6257 6.58651C11.4997 6.81301 12.1847 7.49751 12.4132 8.37351C12.4827 8.64101 12.3227 8.91351 12.0557 8.98351C12.0132 8.99451 11.9707 9.00001 11.9292 9.00001Z" fill="#7E57C2"/>
<path d="M13.5002 9.50001C13.2242 9.50001 13.0002 9.27601 13.0002 9C13.0002 7.406 11.7532 6.091 10.1612 6.007C9.88524 5.9925 9.67374 5.757 9.68824 5.4815C9.70274 5.2055 9.94224 4.9935 10.2137 5.0085C12.3372 5.1205 14.0002 6.874 14.0002 9C14.0002 9.27601 13.7762 9.50001 13.5002 9.50001Z" fill="#7E57C2"/>
<path d="M10.0003 0C7.75025 0 4.24425 0.207 2.10825 2.158C0.59825 3.6615 0.000250036 5.7705 0.000250036 8.5C0.000250036 8.726 -0.000750036 8.978 0.00124996 9.25C-0.000750036 9.5215 0.000250036 9.7735 0.000250036 9.9995C0.000250036 12.729 0.59825 14.838 2.10825 16.3415C2.35935 16.5708 2.62963 16.7759 2.91466 16.9594C4.05961 17.6963 5.00025 18.8259 5.00025 20.1875V20.1875C5.00025 20.9855 5.52475 21 5.62075 21H5.62525C5.87225 20.999 6.08575 20.878 6.29975 20.688C6.3482 20.645 6.70418 20.2526 7.20036 19.6999C7.9089 18.9108 8.93918 18.5 9.99975 18.5V18.5C12.2498 18.5 15.7553 18.2925 17.8918 16.3415C19.4013 14.8385 19.9998 12.729 19.9998 9.9995C19.9998 9.7735 20.0008 9.5215 19.9988 9.2495C20.0008 8.9775 19.9998 8.726 19.9998 8.4995C19.9998 5.77 19.4018 3.661 17.8918 2.1575C15.7558 0.207 12.2503 0 10.0003 0ZM18.5003 9.8255V9.9995C18.5003 12.4525 17.9778 14.124 16.8573 15.2555C14.9163 17 11.2188 17 9.99975 17C9.72871 17 9.33437 16.9997 8.86451 16.9803C8.51856 16.966 8.18139 17.1012 7.9507 17.3594C7.82063 17.505 7.66617 17.6779 7.50197 17.8616C6.97558 18.4506 6.00025 18.0782 6.00025 17.2883V17.2883C6.00025 16.8905 5.72598 16.5491 5.34638 16.43C4.52679 16.173 3.74918 15.8002 3.14325 15.256C2.02275 14.124 1.50025 12.4525 1.50025 9.9995V9.8255C1.50025 9.65 1.49975 9.4605 1.50125 9.239C1.49975 9.039 1.49975 8.85 1.50025 8.674V8.5C1.50025 6.047 2.02275 4.3755 3.14325 3.244C5.08375 1.4995 8.78175 1.4995 10.0003 1.4995C11.2188 1.4995 14.9163 1.4995 16.8568 3.244C17.9778 4.3755 18.4998 6.047 18.4998 8.5V8.674C18.4998 8.8495 18.5003 9.039 18.4988 9.2605C18.5003 9.461 18.5003 9.65 18.5003 9.8255Z" fill="#7E57C2"/>
</svg>
