<svg width="48" height="48" viewBox="0 0 48 48" fill="none" xmlns="http://www.w3.org/2000/svg">
<circle cx="24" cy="24" r="24" fill="#FFE6E6"/>
<path fill-rule="evenodd" clip-rule="evenodd" d="M24.1142 11C25.3481 11 26.4526 11.6399 27.0647 12.7118L35.7577 27.9107C36.3662 28.974 36.3626 30.243 35.7469 31.304C35.1311 32.3661 34.0315 33 32.806 33H15.4066C14.1799 33 13.0803 32.3661 12.4645 31.304C11.8488 30.243 11.8452 28.974 12.4537 27.9107L21.1637 12.7093C21.7758 11.6387 22.8778 11 24.113 11H24.1142ZM24.113 12.8146C23.5371 12.8146 23.0242 13.1122 22.7363 13.6118L14.0287 28.8119C13.7456 29.3079 13.7481 29.8995 14.0348 30.3943C14.3215 30.889 14.8344 31.1854 15.4066 31.1854H32.806C33.377 31.1854 33.8899 30.889 34.1766 30.3943C34.4645 29.8995 34.467 29.3079 34.1815 28.8119L25.4896 13.6118C25.2029 13.1122 24.69 12.8146 24.113 12.8146ZM24.1047 26.1203C24.7737 26.1203 25.3145 26.6611 25.3145 27.33C25.3145 27.999 24.7737 28.5398 24.1047 28.5398C23.4358 28.5398 22.889 27.999 22.889 27.33C22.889 26.6611 23.4249 26.1203 24.0926 26.1203H24.1047ZM24.1023 18.9406C24.6031 18.9406 25.0096 19.3471 25.0096 19.8479V23.598C25.0096 24.0989 24.6031 24.5053 24.1023 24.5053C23.6015 24.5053 23.195 24.0989 23.195 23.598V19.8479C23.195 19.3471 23.6015 18.9406 24.1023 18.9406Z" fill="#172542"/>
</svg>
