<svg width="20" height="20" viewBox="0 0 20 20" fill="none" xmlns="http://www.w3.org/2000/svg">
<path fill-rule="evenodd" clip-rule="evenodd" d="M16.9548 2.98111C15.1063 1.13046 12.648 0.110961 10.029 0.109863C4.63249 0.109863 0.24055 4.50159 0.238355 9.89964C0.237696 11.6252 0.688394 13.3094 1.54522 14.7943L0.15625 19.8677L5.34641 18.5061C6.77643 19.2861 8.38648 19.6973 10.0251 19.6978H10.029C10.0288 19.6978 10.0292 19.6978 10.029 19.6978C15.4249 19.6978 19.8172 15.3056 19.8194 9.90732C19.8205 7.29139 18.8032 4.83176 16.9548 2.98111ZM6.05308 10.2559C5.9308 10.0926 5.05421 8.92953 5.05421 7.7254C5.05421 6.52127 5.68624 5.92942 5.91038 5.68464C6.13453 5.43986 6.39972 5.37861 6.56283 5.37861C6.72594 5.37861 6.88927 5.38015 7.03175 5.38718C7.18191 5.39486 7.38366 5.3301 7.58211 5.80714C7.78606 6.29691 8.27517 7.50126 8.33642 7.62354C8.39767 7.74604 8.43829 7.88873 8.35684 8.05207C8.27539 8.21518 8.23456 8.31726 8.11228 8.46017C7.99 8.60309 7.85543 8.77915 7.74523 8.8887C7.62273 9.01076 7.49518 9.14314 7.63787 9.38791C7.78057 9.63291 8.27144 10.434 8.99875 11.0827C9.93307 11.9163 10.7214 12.1744 10.966 12.2969C11.2105 12.4194 11.3532 12.399 11.4959 12.2357C11.6386 12.0723 12.1075 11.5213 12.2706 11.2765C12.4338 11.0318 12.5969 11.0726 12.821 11.154C13.0454 11.2357 14.248 11.8276 14.4925 11.9498C14.7371 12.0723 14.9002 12.1336 14.9614 12.2357C15.0227 12.3378 15.0227 12.8275 14.8187 13.399C14.6148 13.9704 13.6374 14.492 13.1674 14.562C12.7459 14.6251 12.2127 14.6514 11.6265 14.465C11.2713 14.3524 10.8156 14.2018 10.2319 13.9498C7.77816 12.8901 6.17558 10.4193 6.05308 10.2559Z" fill="#00973C"/>
</svg>
