<svg width="293" height="240" viewBox="0 0 293 240" fill="none" xmlns="http://www.w3.org/2000/svg">
<path fill-rule="evenodd" clip-rule="evenodd" d="M73.8428 152.482C71.9888 152.951 71.1065 153.155 70.2394 153.398C69.026 153.742 67.7534 153.975 66.6234 154.505C62.3613 156.507 59.5798 160.567 60.1079 164.137C60.7666 168.591 64.2213 170.337 67.9292 171.552C72.9538 173.195 77.7682 172.154 82.0133 169.293C87.1395 165.837 92.039 162.04 96.9718 158.307C99.5007 156.394 101.799 154.163 104.369 152.314C107.582 150.001 110.872 147.761 114.3 145.789C123.391 140.555 132.17 141.233 140.524 147.58C141.911 148.632 143.344 149.625 144.765 150.63C144.883 150.713 145.074 150.695 145.701 150.803C147.719 149.345 149.986 147.649 152.312 146.036C161.238 139.834 168.023 139.534 176.899 145.675C184.855 151.178 192.454 157.203 200.241 162.959C203.046 165.032 205.824 167.183 208.823 168.942C213.97 171.966 219.412 171.985 224.815 169.574C227.745 168.267 229.678 166.09 229.916 162.682C230.168 159.081 228.511 156.458 225.498 154.879C222.888 153.51 220.024 152.639 217.138 151.496C221.151 148.171 224.819 148.046 228.878 150.9C236.195 156.052 237.562 168.007 231.415 174.522C229.702 176.338 227.562 177.841 225.404 179.13C218.9 183.006 211.767 185.248 204.267 185.912C190.895 187.097 177.644 186.268 164.605 182.792C157.437 180.88 150.841 177.958 145.628 172.57C144.968 172.781 144.402 172.79 144.124 173.08C139.219 178.185 133.001 180.821 126.369 182.765C111.374 187.15 96.1753 188.488 80.6978 186.055C73.0209 184.849 65.9659 182.18 60.082 176.956C54.3938 171.905 53.0269 164.378 56.4744 157.911C59.8511 151.574 66.7067 149.11 73.8428 152.482Z" fill="#172542"/>
<path fill-rule="evenodd" clip-rule="evenodd" d="M143.961 12.6197C139.234 12.6015 135.063 16.742 134.972 21.4682C137.973 21.4682 140.971 21.4682 143.961 21.4682C143.961 18.369 143.961 15.4937 143.961 12.6197ZM146.216 21.5347C149.423 21.5347 152.379 21.5347 155.345 21.5347C155.026 16.5223 150.866 12.4829 146.216 12.6626C146.216 15.5337 146.216 18.4102 146.216 21.5347ZM134.92 23.8673C135.239 28.991 139.499 33.1236 143.901 32.8289C143.901 29.8792 143.901 26.9325 143.901 23.8673C140.839 23.8673 137.956 23.8673 134.92 23.8673ZM146.234 32.913C151.014 32.9632 155.441 28.5045 155.224 23.9102C152.277 23.9102 149.328 23.9102 146.234 23.9102C146.234 27.0184 146.234 29.9651 146.234 32.913ZM163.854 72.2037C158.134 72.2037 152.616 72.2037 146.954 72.2037C146.954 77.5016 146.952 82.5794 146.96 87.6565C146.962 88.0613 147.043 88.4649 147.086 88.8636C155.557 88.6246 163.77 80.4798 163.854 72.2037ZM126.48 72.0566C126.197 80.1494 134.219 88.2682 143.057 88.8763C143.057 83.2921 143.057 77.7207 143.057 72.0566C137.38 72.0566 131.926 72.0566 126.48 72.0566ZM163.907 68.1037C163.582 58.1183 153.172 50.6215 147.097 51.2708C147.097 56.8682 147.097 62.4657 147.097 68.1037C152.803 68.1037 158.27 68.1037 163.907 68.1037ZM143.235 51.2211C134.974 51.2641 125.993 60.1211 126.503 68.0039C132.034 68.0039 137.56 68.0039 143.235 68.0039C143.235 62.3338 143.235 56.861 143.235 51.2211ZM134.851 135.115C141.826 135.115 148.598 135.115 155.33 135.115C155.33 124.428 155.33 113.958 155.33 103.377C148.427 103.377 141.723 103.377 134.851 103.377C134.851 113.986 134.851 124.463 134.851 135.115ZM83.2607 164.24C70.248 178.157 94.4188 100.192 94.4188 80.6656C89.7567 84.4394 85.482 87.8955 80.9426 91.5683C79.8936 89.0554 78.9165 86.7205 77.8535 84.1719C80.203 82.292 82.5259 80.4211 84.8626 78.5702C95.7736 69.9292 106.695 61.3028 117.582 52.631C118.159 52.1723 118.827 51.3724 118.833 50.7244C118.919 42.5753 118.889 34.4233 118.889 25.7557C116.754 27.416 114.963 28.8094 112.946 30.3784C112.398 29.0926 111.927 27.9781 111.391 26.7123C122.617 17.8008 133.768 8.94811 145.04 0.000976562C156.196 9.01951 167.267 17.9697 178.526 27.0699C178.054 28.2014 177.588 29.3171 176.981 30.7705C174.841 29.0485 172.871 27.4632 170.633 25.6625C170.534 26.4721 170.403 27.0626 170.399 27.655C170.35 34.7458 170.37 41.839 170.25 48.9298C170.224 50.5072 170.719 51.4801 171.946 52.4652C184.821 62.7997 197.644 73.202 210.477 83.5898C210.987 84.0019 211.462 84.4563 212.047 84.97C211.02 87.386 210.021 89.7343 208.938 92.2865C204.582 88.7093 200.431 85.2973 195.871 81.5496C195.871 100.668 220.487 176.497 206.237 164.24C189.003 149.414 168.409 134.031 159.483 137.809C154.926 139.737 144.95 146.312 144.95 146.312C144.95 146.312 133.992 139.159 128.093 138.01C120.627 136.557 97.6844 148.814 83.2607 164.24Z" fill="#FAD89D"/>
<path d="M20.9145 205.649C24.7589 202.686 26.6522 201.188 30.3879 198.148C29.6615 197.954 29.3013 197.853 28.5762 197.655C29.0518 195.912 29.2893 195.042 29.7648 193.3C30.6453 193.54 31.0846 193.66 31.9644 193.895C32.4599 194.029 33.8383 194.441 34.7133 195.704L34.784 195.818C34.7871 195.818 34.8203 195.744 34.8499 195.741C35.85 195.64 37.6369 195.374 38.1777 195.512C39.043 195.73 39.4769 195.838 40.3416 196.052C39.9096 197.805 39.6932 198.682 39.2606 200.437C38.4587 200.238 38.0562 200.138 37.2543 199.936C35.1061 208.483 34.0323 212.755 31.8841 221.304C32.724 221.516 33.1434 221.621 33.9852 221.827C33.5567 223.564 33.3446 224.432 32.9156 226.168C31.8937 225.917 31.3801 225.788 30.3588 225.528C29.6827 225.358 28.3442 224.877 27.5743 223.775C27.538 223.723 27.5507 223.676 27.5507 223.676C27.5465 223.673 27.4474 223.723 27.4323 223.74C26.9223 224.341 24.8206 224.095 24.1486 223.913C24.0519 223.889 24.003 223.883 21.5991 223.224C22.0693 221.5 22.3049 220.636 22.7751 218.912C23.6132 219.141 24.0344 219.253 24.8731 219.481C26.3228 214.068 27.048 211.361 28.4983 205.951C24.5988 209.117 22.6143 210.679 18.5982 213.763C16.8458 209.126 16.0046 206.804 14.384 202.155C12.788 207.43 11.9886 210.067 10.3939 215.343C11.2453 215.599 11.6719 215.727 12.5228 215.982C12.0133 217.696 11.7595 218.552 11.2501 220.264C10.1987 219.953 9.67113 219.795 8.62088 219.475C8.00088 219.287 6.7065 218.748 6.00976 217.623C5.97592 217.566 5.95961 217.508 5.94208 217.502C5.92033 217.497 5.83694 217.544 5.82062 217.561C5.28341 218.136 3.18835 217.787 2.52062 217.574C2.47409 217.558 2.42574 217.549 0.00195312 216.761C0.553666 215.06 0.829825 214.208 1.38154 212.508C2.21001 212.778 2.62214 212.912 3.45061 213.176C6.13122 204.783 7.47334 200.586 10.1552 192.192C9.36536 191.939 8.97197 191.81 8.18277 191.553C8.74053 189.835 9.0191 188.976 9.57626 187.258C10.4464 187.541 10.8809 187.681 11.7529 187.96C12.2424 188.117 13.605 188.597 14.4226 189.904C14.4226 189.904 14.4698 190.014 14.4867 190.019C14.506 190.025 14.5725 189.961 14.6009 189.959C15.5684 189.9 17.3631 189.712 17.8562 189.861C18.7481 190.132 19.1965 190.269 20.089 190.533C19.5748 192.265 19.3186 193.133 18.8031 194.863C17.9915 194.621 17.5873 194.5 16.7763 194.254C18.368 198.816 19.1947 201.095 20.9145 205.649Z" fill="#172542"/>
<path d="M53.729 199.138C54.6367 199.335 55.0905 199.432 55.9981 199.622C55.6295 201.39 55.4434 202.273 55.0754 204.042C54.2487 203.869 53.8366 203.782 53.0118 203.605C51.1729 212.224 50.255 216.535 48.4162 225.154C49.2827 225.338 49.7124 225.43 50.5789 225.612C50.2145 227.363 50.0314 228.239 49.6682 229.989C47.2372 229.481 47.1441 229.453 47.0463 229.433C46.3652 229.286 45.0847 228.863 44.2557 227.794C44.2158 227.739 44.1288 227.677 44.1288 227.677C44.1245 227.677 44.1209 227.721 44.0605 227.752C42.8489 228.372 41.5219 228.21 40.8427 228.054C40.7442 228.031 40.6481 228.017 38.2285 227.448C38.6352 225.707 38.8388 224.836 39.2467 223.095C40.1091 223.295 40.5399 223.4 41.4028 223.597C43.3734 215.008 44.362 210.716 46.3314 202.126C45.509 201.935 45.0956 201.839 44.2738 201.646C44.6853 199.887 44.8932 199.007 45.3053 197.248C46.1906 197.456 46.6335 197.56 47.5206 197.764C48.0198 197.879 49.5293 198.945 50.3257 199.472C50.3523 199.49 50.3523 199.572 50.3523 199.572C50.3565 199.573 50.478 199.517 50.5088 199.513C51.4618 199.371 53.2317 199.033 53.729 199.138Z" fill="#172542"/>
<path d="M76.813 212.182C77.0656 210.558 77.1943 209.749 77.4463 208.125C74.1403 207.608 72.4912 207.334 69.1918 206.756C68.8268 208.84 68.6425 209.88 68.2769 211.967C68.2769 211.967 80.5656 223.54 80.8605 223.856C81.4056 224.443 81.9041 225.436 81.6944 226.928C81.4382 228.752 81.3065 229.666 81.0503 231.489C80.8339 233.023 80.0689 233.839 79.3679 234.244C78.2258 234.904 77.0294 234.872 76.3924 234.778C76.2946 234.76 64.2227 232.791 64.1261 232.774C63.5405 232.671 62.1984 232.292 61.3324 231.252C61.2883 231.199 61.2654 231.149 61.2484 231.146C61.2273 231.14 61.1499 231.196 61.1366 231.216C60.6732 231.853 58.5696 231.76 57.9376 231.639C57.8391 231.621 57.7871 231.615 55.3047 231.129C55.6479 229.374 55.8195 228.497 56.1634 226.743C57.0124 226.908 57.4402 226.991 58.2893 227.154C58.5533 225.774 58.6826 225.085 58.9461 223.707C58.1043 223.543 57.6807 223.46 56.8384 223.294C57.1786 221.558 57.3508 220.691 57.6904 218.953C58.6198 219.135 59.0863 219.225 60.0151 219.401C60.5463 219.457 62.7851 220.124 63.0111 220.982C63.0184 221.007 63.0468 221.086 63.0927 221.093C63.1387 221.101 63.1471 221.054 63.2039 221.022C64.4959 220.236 66.003 220.462 66.5166 220.596C67.4677 220.764 67.9445 220.846 68.8963 221.007C68.599 222.754 68.4509 223.628 68.1542 225.371C67.2889 225.223 66.8538 225.15 65.9903 224.997C65.7473 226.382 65.6295 227.075 65.386 228.458C68.8473 229.065 70.5798 229.355 74.049 229.897C74.379 227.787 74.5427 226.732 74.8727 224.622C74.8727 224.622 62.6558 213.031 62.364 212.648C62.2485 212.497 61.3016 211.382 61.6533 209.546C61.9615 207.932 62.1144 207.128 62.4226 205.513C61.6134 205.358 61.2086 205.278 60.4 205.118C60.7439 203.364 60.9161 202.488 61.2593 200.732C62.1506 200.908 62.5972 200.996 63.4885 201.166C63.8541 201.236 64.6814 201.436 65.3787 201.891C65.6966 202.099 66.0936 202.395 66.3547 202.768C66.3547 202.768 66.4127 202.873 66.4272 202.876C66.4447 202.878 66.5069 202.808 66.539 202.803C67.2859 202.667 68.654 202.143 69.2752 202.23C69.4975 202.262 69.6311 202.384 78.363 203.745C78.8664 203.822 80.2732 204.086 81.2721 205.25L81.3506 205.352C81.3542 205.352 81.4086 205.267 81.4086 205.267C82.6571 204.438 84.1297 204.602 84.6319 204.675C84.7068 204.685 84.7425 204.691 84.8162 204.699C84.3394 208.096 84.1001 209.799 83.6227 213.196C80.8968 212.81 79.5353 212.607 76.813 212.182Z" fill="#172542"/>
<path d="M106.191 238.278C104.321 238.12 103.384 238.032 101.516 237.854C100.826 237.787 99.5597 237.527 98.5663 236.555C98.5681 236.535 98.5717 236.526 98.5735 236.511C98.5264 236.505 98.521 236.552 98.521 236.552C97.3547 237.303 96.0095 237.296 95.3207 237.22C95.2246 237.211 95.0258 237.211 90.5601 236.681C90.7716 234.904 90.8743 234.019 91.0846 232.241C91.1227 232.247 91.1444 232.247 91.1825 232.249C92.8177 232.446 93.6341 232.54 95.2705 232.719C96.2313 223.957 96.7141 219.583 97.6737 210.819C95.2977 210.559 94.1115 210.42 91.7378 210.125C91.6375 210.942 91.5898 211.343 91.4895 212.16C89.6645 211.933 88.7509 211.818 86.9277 211.576C87.0486 210.67 87.1072 210.221 87.2287 209.315C87.271 209 87.7834 207.899 87.8577 207.374C87.9375 206.816 87.7115 205.698 87.761 205.335C87.7737 205.227 87.781 205.172 87.7955 205.063C87.7955 205.063 98.5282 206.367 98.6213 206.376C99.266 206.446 100.538 206.718 101.458 207.731L101.496 207.784C101.499 207.782 101.499 207.736 101.499 207.736C102.652 206.936 103.904 206.921 104.501 206.977C104.639 206.991 115.359 207.876 115.359 207.876C115.352 207.986 115.35 208.045 115.341 208.154C115.315 208.515 114.861 209.573 114.828 210.125C114.795 210.662 115.08 211.841 115.058 212.16C114.994 213.07 114.964 213.519 114.9 214.431C113.088 214.302 112.184 214.234 110.372 214.088C110.437 213.269 110.471 212.865 110.537 212.045C108.138 211.851 106.939 211.746 104.542 211.52C103.717 220.295 103.3 224.679 102.474 233.454C104.112 233.609 104.932 233.683 106.57 233.823C106.609 233.826 106.63 233.826 106.67 233.828C106.517 235.611 106.44 236.502 106.288 238.285C106.249 238.281 106.231 238.281 106.191 238.278Z" fill="#172542"/>
<path d="M118.98 226.947C118.078 226.893 117.624 226.866 116.723 226.808C116.838 225.024 116.897 224.133 117.012 222.348C117.905 222.403 118.354 222.435 119.247 222.488C119.48 218.571 119.597 216.616 119.83 212.699C118.993 212.648 118.575 212.622 117.737 212.567C117.852 210.781 117.909 209.89 118.023 208.105C118.944 208.165 119.408 208.194 120.328 208.248C120.839 208.231 123.039 208.6 123.362 209.421C123.372 209.447 123.451 209.517 123.451 209.517C123.455 209.517 123.497 209.468 123.544 209.43C124.65 208.479 126.132 208.509 126.638 208.577C130.123 208.735 131.867 208.793 135.353 208.882C135.862 208.849 138.073 209.146 138.423 209.952C138.435 209.975 138.516 210.045 138.516 210.045C138.518 210.042 138.562 209.998 138.608 209.955C139.681 208.969 141.163 208.943 141.67 208.997C141.743 208.997 141.781 208.997 141.856 209C141.827 211.663 141.814 212.994 141.786 215.661C139.052 215.629 137.684 215.606 134.951 215.538C134.973 214.66 134.985 214.221 135.007 213.346C131.673 213.261 130.003 213.202 126.67 213.053C126.497 216.974 126.412 218.932 126.239 222.852C128.885 222.969 130.207 223.016 132.851 223.097C132.875 222.295 132.886 221.893 132.909 221.09C134.747 221.145 135.67 221.169 137.509 221.206C137.492 222.08 137.485 222.519 137.468 223.397C137.46 223.807 137.049 224.894 137.044 225.44C137.038 225.973 137.392 227.092 137.385 227.459C137.368 228.352 137.359 228.796 137.341 229.69C135.468 229.654 134.533 229.628 132.659 229.573C132.684 228.752 132.695 228.341 132.72 227.52C130.049 227.442 128.714 227.391 126.044 227.271C125.906 230.388 125.836 231.945 125.698 235.062C129.194 235.219 130.942 235.28 134.439 235.37C134.462 234.497 134.473 234.054 134.495 233.18C137.336 233.251 138.755 233.28 141.597 233.31C141.57 235.974 141.555 237.305 141.528 239.972C141.45 239.969 141.412 239.972 141.334 239.972C141.285 239.972 141.183 239.969 141.084 239.969C140.395 239.96 139.064 239.806 138.093 238.921C138.046 238.876 137.998 238.826 137.998 238.826C137.992 238.824 137.908 238.896 137.896 238.918C137.543 239.62 135.462 239.871 134.77 239.855C134.721 239.852 125.105 239.516 125.057 239.513C124.413 239.482 122.987 239.279 122.045 238.359C121.999 238.313 121.957 238.264 121.957 238.264C121.951 238.261 121.868 238.331 121.856 238.354C121.479 239.044 119.386 239.219 118.746 239.184C118.647 239.178 118.547 239.178 116.035 239.017C116.149 237.231 116.208 236.34 116.323 234.555C117.2 234.614 117.64 234.635 118.518 234.688C118.701 231.592 118.796 230.045 118.98 226.947Z" fill="#172542"/>
<path d="M165.606 213.043C161.566 213.216 159.546 213.277 155.503 213.358C155.619 219.141 155.679 222.036 155.794 227.819C159.967 227.735 162.051 227.667 166.221 227.491C165.977 221.711 165.853 218.824 165.606 213.043ZM176.069 234.643C176.18 236.409 176.237 237.296 176.349 239.061C175.284 239.128 174.751 239.158 173.687 239.219C172.997 239.259 170.996 239.058 170.627 238.381C170.616 238.359 170.526 238.293 170.526 238.293C170.521 238.295 170.48 238.348 170.434 238.393C169.493 239.309 168.117 239.507 167.424 239.539C167.376 239.542 167.327 239.55 164.812 239.647C164.743 237.879 164.71 236.994 164.641 235.224C165.384 235.197 165.756 235.18 166.499 235.15C164.88 233.919 164.077 233.303 162.478 232.062C159.84 232.152 158.518 232.185 155.879 232.237C155.906 233.532 155.919 234.183 155.944 235.479C156.823 235.459 157.266 235.453 158.144 235.431C158.187 237.2 158.21 238.082 158.253 239.854C157.188 239.879 156.653 239.89 155.589 239.913C154.897 239.923 153.61 239.808 152.569 238.958C152.569 238.958 152.485 238.865 152.469 238.865C152.447 238.865 152.398 238.949 152.366 238.96C151.535 239.272 150.011 239.985 149.321 239.991C149.222 239.991 149.174 239.996 146.705 239.999C146.705 238.228 146.705 237.345 146.705 235.576C147.566 235.576 147.996 235.573 148.856 235.572C148.849 234.259 148.846 233.6 148.84 232.283C147.948 232.289 147.501 232.289 146.607 232.289C146.607 230.519 146.607 229.634 146.607 227.866C147.491 227.866 147.934 227.861 148.819 227.858C148.79 222.091 148.774 219.208 148.744 213.442C147.924 213.444 147.517 213.447 146.697 213.447C146.696 211.675 146.696 210.792 146.694 209.025C147.599 209.025 148.052 209.022 148.957 209.016C149.461 209.013 150.89 209.002 152.012 209.991C152.06 210.036 152.059 210.081 152.105 210.081C152.149 210.081 152.189 210.013 152.199 209.989C152.537 209.172 154.723 208.946 155.227 208.938C160.375 208.837 162.949 208.752 168.092 208.5C168.551 208.477 169.868 208.451 170.956 209.306C171.535 209.763 172.238 210.654 172.325 212.156C172.683 218.37 172.86 221.474 173.218 227.687C173.305 229.191 172.68 230.098 172.127 230.625C171.263 231.451 170.191 231.691 169.516 231.768C171.17 232.985 172.001 233.588 173.679 234.789C174.636 234.734 175.111 234.702 176.069 234.643Z" fill="#172542"/>
<path d="M199.571 210.341C200.615 219.094 201.137 223.463 202.18 232.216C206.519 231.697 208.687 231.413 213.016 230.794C211.77 222.068 211.147 217.71 209.9 208.983C205.773 209.575 203.707 209.846 199.571 210.341ZM193.275 237.685C193.099 235.907 193.009 235.015 192.833 233.235C193.712 233.148 194.146 233.11 195.023 233.017C194.113 224.249 193.662 219.867 192.753 211.1C191.918 211.187 191.498 211.229 190.662 211.314C190.486 209.532 190.4 208.641 190.225 206.863C198.92 206.002 203.26 205.46 211.919 204.167C212.413 204.045 213.708 203.924 214.949 204.675C215.557 205.042 216.363 205.885 216.606 207.416C217.254 211.508 217.581 213.553 218.229 217.646C219.021 217.52 219.416 217.455 220.209 217.325C220.493 219.073 220.636 219.946 220.922 221.694C220.122 221.826 219.722 221.887 218.92 222.016C219.443 225.313 219.703 226.961 220.226 230.26C220.469 231.791 219.926 232.819 219.417 233.388C218.546 234.359 217.318 234.681 216.682 234.778C216.634 234.783 202.321 236.703 202.222 236.713C201.583 236.789 199.473 236.719 199.065 236.065C199.051 236.046 198.956 235.988 198.956 235.988C198.954 235.989 198.909 236.044 198.863 236.091C197.949 237.064 196.622 237.345 195.98 237.412C195.883 237.419 193.275 237.685 193.275 237.685Z" fill="#172542"/>
<path d="M231.149 205.414C232.814 214.069 233.646 218.398 235.311 227.052C239.458 226.254 241.528 225.829 245.662 224.935C243.803 216.32 242.877 212.014 241.019 203.398C237.079 204.25 235.102 204.653 231.149 205.414ZM233.133 232.014C232.451 232.14 231.228 232.233 230.089 231.598C229.421 231.226 228.535 230.436 228.265 228.91C227.686 225.621 227.394 223.98 226.814 220.691C225.901 220.85 225.443 220.928 224.529 221.086C224.228 219.322 224.076 218.445 223.775 216.681C224.678 216.525 225.135 216.447 226.039 216.288C225.321 212.209 224.959 210.167 224.241 206.088C223.979 204.605 224.496 203.528 224.959 202.948C225.822 201.864 227.159 201.574 227.658 201.48C233.689 200.356 236.696 199.741 242.696 198.406C243.195 198.297 244.426 198.079 245.67 198.716C246.365 199.074 247.225 199.859 247.565 201.325C248.499 205.358 248.965 207.374 249.9 211.411C250.74 211.215 251.163 211.117 252.003 210.918C252.415 212.659 252.619 213.528 253.031 215.268C252.182 215.47 251.757 215.57 250.911 215.766C251.663 219.021 252.042 220.647 252.795 223.898C253.145 225.41 252.654 226.457 252.156 227.089C251.368 228.083 250.192 228.517 249.61 228.648C243.039 230.111 239.741 230.785 233.133 232.014Z" fill="#172542"/>
<path d="M272.016 205.69C273.72 201.141 274.539 198.865 276.115 194.308C275.393 194.527 275.035 194.635 274.313 194.85C273.798 193.118 273.541 192.253 273.026 190.522C273.902 190.26 274.34 190.127 275.214 189.861C275.707 189.712 277.096 189.332 278.509 189.944L278.63 190.005C278.633 190.004 278.622 189.921 278.646 189.904C279.443 189.287 280.83 188.116 281.365 187.946C282.217 187.672 282.643 187.535 283.494 187.258C284.053 188.976 284.33 189.835 284.889 191.553C284.099 191.81 283.703 191.939 282.913 192.19C285.595 200.586 286.934 204.782 289.616 213.176C290.446 212.912 290.857 212.778 291.686 212.508C292.213 214.137 292.492 214.988 293 216.553V216.783C292.037 217.096 291.533 217.258 290.547 217.572C289.88 217.787 288.489 218.088 287.25 217.561C287.192 217.535 287.175 217.491 287.175 217.491C287.172 217.491 287.113 217.58 287.109 217.606C286.992 218.385 285.066 219.287 284.399 219.488C284.303 219.519 284.256 219.536 281.866 220.252C281.356 218.535 281.102 217.681 280.593 215.967C281.427 215.72 281.842 215.594 282.674 215.343C281.053 209.979 280.246 207.299 278.623 201.935C276.974 206.688 276.111 209.064 274.326 213.806C270.393 210.793 268.456 209.266 264.635 206.173C266.06 211.494 266.77 214.158 268.196 219.481C269.053 219.25 269.486 219.133 270.341 218.899C270.81 220.625 271.045 221.483 271.516 223.21C270.458 223.497 269.932 223.645 268.875 223.928C268.249 224.095 266.869 224.318 265.685 223.729C265.627 223.699 265.583 223.662 265.566 223.665C265.543 223.67 265.497 223.751 265.493 223.775C265.339 224.547 263.385 225.361 262.709 225.531C262.66 225.542 262.614 225.56 260.152 226.168C259.724 224.432 259.509 223.564 259.08 221.829C259.922 221.621 260.343 221.516 261.183 221.304C259.035 212.755 257.962 208.483 255.812 199.935C255.012 200.138 254.615 200.236 253.813 200.434C253.381 198.681 253.163 197.804 252.73 196.052C253.615 195.831 254.057 195.724 254.94 195.501C255.438 195.375 256.842 195.062 258.222 195.741C258.222 195.741 258.319 195.811 258.336 195.809C258.356 195.803 258.373 195.713 258.397 195.697C259.185 195.135 260.61 194.029 261.105 193.895C262.003 193.655 262.453 193.534 263.35 193.289C263.826 195.031 264.066 195.9 264.542 197.644C263.724 197.866 263.315 197.976 262.499 198.197C266.25 201.233 268.154 202.732 272.016 205.69Z" fill="#172542"/>
</svg>
