<svg width="20" height="20" viewBox="0 0 20 20" fill="none" xmlns="http://www.w3.org/2000/svg">
<path d="M18.75 16.25H1.25001C0.559649 16.25 0 16.8096 0 17.5C0 18.1904 0.55965 18.75 1.25001 18.75H18.75C19.4404 18.75 20 18.1904 20 17.5C20 16.8096 19.4403 16.25 18.75 16.25Z" fill="#172542"/>
<path d="M18.75 8.75H1.25001C0.559649 8.75 0 9.30965 0 10C0 10.6904 0.55965 11.25 1.25001 11.25H18.75C19.4404 11.25 20 10.6904 20 10C20 9.30965 19.4403 8.75 18.75 8.75Z" fill="#172542"/>
<path d="M18.75 1.25H1.25001C0.559649 1.25 0 1.80965 0 2.50001C0 3.19037 0.55965 3.75002 1.25001 3.75002H18.75C19.4404 3.75002 20 3.19037 20 2.50001C20 1.80965 19.4403 1.25 18.75 1.25Z" fill="#172542"/>
</svg>
