<svg width="24" height="23" viewBox="0 0 24 23" fill="none" xmlns="http://www.w3.org/2000/svg">
<path d="M19.4853 14.0091C19.8241 14.0091 20.1629 14.047 20.4932 14.1215C21.0636 14.2494 21.4222 14.8159 21.2923 15.3824C21.161 15.9489 20.5935 16.3074 20.0245 16.1767C18.5563 15.8421 17.0881 17.0074 17.0881 18.5045C17.0881 19.8203 18.1625 20.8914 19.4853 20.8914C20.8066 20.8914 21.8824 19.8203 21.8824 18.5045C21.8824 18.3696 21.8711 18.236 21.8499 18.1081C21.7525 17.5332 22.1436 16.9906 22.7196 16.8936C23.2941 16.798 23.8419 17.186 23.9379 17.7609C23.9788 18.0027 24 18.2515 24 18.5045C24 20.9828 21.9742 23 19.4853 23C16.9949 23 14.9705 20.9828 14.9705 18.5045C14.9705 16.0249 16.9949 14.0091 19.4853 14.0091ZM9.741 17.45C10.3255 17.45 10.7998 17.9223 10.7998 18.5042C10.7998 19.0862 10.3255 19.5585 9.741 19.5585H1.0588C0.474345 19.5585 0 19.0862 0 18.5042C0 17.9223 0.474345 17.45 1.0588 17.45H9.741ZM4.51517 0C7.00548 0 9.02991 2.01579 9.02991 4.49547C9.02991 6.97374 7.00548 8.99094 4.51517 8.99094C2.02486 8.99094 0.000423522 6.97374 0.000423522 4.49547C0.000423522 4.24244 0.0215996 3.99363 0.0625401 3.75185C0.158538 3.17691 0.697823 2.79315 1.28087 2.88452C1.85686 2.98152 2.24791 3.52412 2.1505 4.09906C2.12933 4.22698 2.11803 4.36052 2.11803 4.49547C2.11803 5.81122 3.19237 6.88237 4.51517 6.88237C5.83797 6.88237 6.9123 5.81122 6.9123 4.49547C6.9123 3.17832 5.83797 2.10857 4.51517 2.10857C4.33446 2.10857 4.15376 2.12825 3.98153 2.16761C3.40977 2.30396 2.84226 1.94691 2.70955 1.38041C2.57685 0.813908 2.9312 0.246 3.50154 0.115268C3.83189 0.0379543 4.17211 0 4.51517 0ZM22.9409 3.44076C23.5254 3.44076 23.9997 3.91308 23.9997 4.49505C23.9997 5.07701 23.5254 5.54933 22.9409 5.54933H14.2601C13.6757 5.54933 13.2013 5.07701 13.2013 4.49505C13.2013 3.91308 13.6757 3.44076 14.2601 3.44076H22.9409Z" fill="#172542"/>
</svg>
