<svg width="30" height="29" viewBox="0 0 30 29" fill="none" xmlns="http://www.w3.org/2000/svg">
<path d="M15.0083 2.85564C17.3116 1.38289 20.1306 1.00609 22.7289 1.82369C24.9888 2.52647 26.868 4.14076 27.9296 6.29127C29.1708 8.89773 29.3398 11.9011 28.399 14.6349C27.533 17.1517 26.1132 19.4332 24.2483 21.3048C23.0256 22.5616 21.708 23.7187 20.3077 24.7656L20.2336 24.8286C19.7684 25.1418 19.1428 25.0188 18.8254 24.5517C18.664 24.3261 18.5992 24.0436 18.6457 23.7685C18.6923 23.4935 18.8462 23.2494 19.0724 23.0919C20.3864 22.1018 21.6252 21.0123 22.7783 19.8324C24.439 18.1982 25.7072 16.1956 26.4842 13.9805C27.2316 11.7733 27.0804 9.35312 26.0642 7.26029C25.2466 5.61391 23.8059 4.37792 22.0742 3.83724C19.8655 3.13364 17.4592 3.56018 15.6136 4.98246C15.2467 5.25935 14.7452 5.25935 14.3783 4.98246C12.5335 3.5582 10.1262 3.13148 7.91762 3.83724C6.17436 4.36598 4.7193 5.59824 3.89053 7.24771C2.89736 9.33899 2.75529 11.7453 3.49524 13.9428C4.27554 16.1525 5.54341 18.1503 7.20115 19.7821C9.65062 22.1748 12.3517 24.2851 15.2553 26.0745C15.6246 26.3354 15.787 26.8089 15.6576 27.2474C15.5282 27.6859 15.1364 27.9897 14.6871 27.9999C14.4845 28.0011 14.2864 27.9397 14.1189 27.8237C11.0941 25.9601 8.28109 23.7611 5.73114 21.2671C3.85591 19.4016 2.43091 17.1185 1.56816 14.5972C0.659815 11.8671 0.846275 8.88204 2.08699 6.29127C3.14858 4.14076 5.02774 2.52647 7.28762 1.82369C9.8859 1.00609 12.7049 1.38289 15.0083 2.85564ZM20.2865 6.99565L20.4436 6.99601C22.2856 7.58837 23.5966 9.25175 23.7666 11.2119L23.7745 11.3762C23.7679 11.5943 23.6935 11.8063 23.5597 11.9804C23.3925 12.1981 23.1467 12.3383 22.8772 12.3697C22.3114 12.4442 21.7928 12.0394 21.716 11.4636C21.6644 10.3006 20.9041 9.29471 19.8136 8.94664C19.4082 8.68876 19.2281 8.18209 19.3775 7.71954C19.5269 7.257 19.9671 6.95825 20.4436 6.99601L20.2865 6.99565Z" fill="#172542" stroke="#172542"/>
</svg>
