<svg width="20" height="20" viewBox="0 0 20 20" fill="none" xmlns="http://www.w3.org/2000/svg">
<path d="M18.78 17.7459L15.6863 14.7212L15.6138 14.611C15.479 14.4767 15.2947 14.4011 15.1023 14.4011C14.9098 14.4011 14.7255 14.4767 14.5907 14.611C11.9615 17.023 7.91033 17.1541 5.1238 14.9173C2.33728 12.6806 1.6801 8.77003 3.58812 5.77915C5.49613 2.78827 9.37726 1.64516 12.6576 3.10792C15.9379 4.57068 17.5994 8.18541 16.5403 11.5548C16.464 11.7982 16.5264 12.063 16.7039 12.2492C16.8813 12.4355 17.147 12.5151 17.4007 12.458C17.6545 12.4009 17.8578 12.2157 17.9341 11.9723C19.2002 7.97378 17.288 3.6708 13.4345 1.84695C9.58104 0.0231054 4.94275 1.22574 2.52015 4.67688C0.0975434 8.12801 0.617661 12.7919 3.74404 15.6516C6.87041 18.5112 11.6648 18.7083 15.0257 16.1154L17.7649 18.7935C18.0478 19.0688 18.5051 19.0688 18.788 18.7935C19.0707 18.5142 19.0707 18.0645 18.788 17.7853L18.78 17.7459Z" fill="#ADBFD4" stroke="#ADBFD4"/>
</svg>
