<svg width="24" height="24" viewBox="0 0 24 24" fill="none" xmlns="http://www.w3.org/2000/svg">
<path d="M22.3999 5.5496C21.6343 5.8896 20.8119 6.1184 19.9487 6.2216C20.8303 5.6936 21.5063 4.8576 21.8247 3.8608C21.0007 4.3496 20.0871 4.7048 19.1143 4.8968C18.3359 4.0672 17.2271 3.5488 15.9999 3.5488C13.6431 3.5488 11.7327 5.46 11.7327 7.816C11.7327 8.1504 11.7711 8.4768 11.8431 8.788C8.29672 8.6104 5.15272 6.9112 3.04712 4.3288C2.68072 4.9592 2.47032 5.692 2.47032 6.4752C2.47032 7.9552 3.22312 9.2616 4.36792 10.0264C3.66872 10.004 3.01032 9.812 2.43512 9.4928C2.43512 9.5112 2.43512 9.528 2.43512 9.5464C2.43512 11.6144 3.90552 13.3392 5.85832 13.7304C5.50072 13.828 5.12312 13.88 4.73352 13.88C4.45912 13.88 4.19112 13.8528 3.93112 13.804C4.47432 15.4992 6.05032 16.7336 7.91752 16.768C6.45752 17.9128 4.61752 18.5952 2.61752 18.5952C2.27352 18.5952 1.93352 18.5752 1.59912 18.5352C3.48792 19.7456 5.73032 20.452 8.14072 20.452C15.9903 20.452 20.2815 13.9496 20.2815 8.3104C20.2815 8.1256 20.2775 7.9416 20.2695 7.7584C21.1039 7.156 21.8279 6.4048 22.3999 5.5496Z" fill="#172542"/>
</svg>
