<svg width="28" height="28" viewBox="0 0 28 28" fill="none" xmlns="http://www.w3.org/2000/svg">
<path fill-rule="evenodd" clip-rule="evenodd" d="M1.75039 14.0001C1.75039 13.7681 1.84258 13.5455 2.00667 13.3814C2.17076 13.2173 2.39333 13.1251 2.62539 13.1251H23.2631L17.7559 7.61963C17.6745 7.53828 17.61 7.44169 17.566 7.3354C17.5219 7.22911 17.4993 7.11518 17.4993 7.00013C17.4993 6.88508 17.5219 6.77115 17.566 6.66486C17.61 6.55856 17.6745 6.46198 17.7559 6.38063C17.8372 6.29927 17.9338 6.23474 18.0401 6.19071C18.1464 6.14668 18.2603 6.12402 18.3754 6.12402C18.4904 6.12402 18.6044 6.14668 18.7107 6.19071C18.817 6.23474 18.9135 6.29927 18.9949 6.38063L25.9949 13.3806C26.0764 13.4619 26.141 13.5585 26.1851 13.6648C26.2292 13.7711 26.252 13.885 26.252 14.0001C26.252 14.1152 26.2292 14.2292 26.1851 14.3355C26.141 14.4418 26.0764 14.5383 25.9949 14.6196L18.9949 21.6196C18.9135 21.701 18.817 21.7655 18.7107 21.8095C18.6044 21.8536 18.4904 21.8762 18.3754 21.8762C18.2603 21.8762 18.1464 21.8536 18.0401 21.8095C17.9338 21.7655 17.8372 21.701 17.7559 21.6196C17.6745 21.5383 17.61 21.4417 17.566 21.3354C17.5219 21.2291 17.4993 21.1152 17.4993 21.0001C17.4993 20.8851 17.5219 20.7712 17.566 20.6649C17.61 20.5586 17.6745 20.462 17.7559 20.3806L23.2631 14.8751H2.62539C2.39333 14.8751 2.17076 14.7829 2.00667 14.6188C1.84258 14.4548 1.75039 14.2322 1.75039 14.0001Z" fill="#ADBFD4"/>
</svg>
