<svg width="28" height="28" viewBox="0 0 28 28" fill="none" xmlns="http://www.w3.org/2000/svg">
<path fill-rule="evenodd" clip-rule="evenodd" d="M26.2496 14.0001C26.2496 13.7681 26.1574 13.5455 25.9933 13.3814C25.8292 13.2173 25.6067 13.1251 25.3746 13.1251H4.73686L10.2441 7.61963C10.3255 7.53828 10.39 7.44169 10.434 7.3354C10.4781 7.22911 10.5007 7.11518 10.5007 7.00013C10.5007 6.88508 10.4781 6.77115 10.434 6.66486C10.39 6.55856 10.3255 6.46198 10.2441 6.38063C10.1628 6.29927 10.0662 6.23474 9.95988 6.19071C9.85359 6.14668 9.73966 6.12402 9.62461 6.12402C9.50956 6.12402 9.39563 6.14668 9.28934 6.19071C9.18305 6.23474 9.08646 6.29927 9.00511 6.38063L2.00511 13.3806C1.92363 13.4619 1.85898 13.5585 1.81486 13.6648C1.77075 13.7711 1.74805 13.885 1.74805 14.0001C1.74805 14.1152 1.77075 14.2292 1.81486 14.3355C1.85898 14.4418 1.92363 14.5383 2.00511 14.6196L9.00511 21.6196C9.08646 21.701 9.18305 21.7655 9.28934 21.8095C9.39563 21.8536 9.50956 21.8762 9.62461 21.8762C9.73966 21.8762 9.85359 21.8536 9.95988 21.8095C10.0662 21.7655 10.1628 21.701 10.2441 21.6196C10.3255 21.5383 10.39 21.4417 10.434 21.3354C10.4781 21.2291 10.5007 21.1152 10.5007 21.0001C10.5007 20.8851 10.4781 20.7712 10.434 20.6649C10.39 20.5586 10.3255 20.462 10.2441 20.3806L4.73686 14.8751H25.3746C25.6067 14.8751 25.8292 14.7829 25.9933 14.6188C26.1574 14.4548 26.2496 14.2322 26.2496 14.0001Z" fill="#ADBFD4"/>
</svg>
