<svg width="20" height="20" viewBox="0 0 20 20" fill="none" xmlns="http://www.w3.org/2000/svg">
<g clip-path="url(#clip0_320_9098)">
<path d="M19.8217 14.4726C19.768 14.3826 19.4354 13.66 17.8353 12.1749C16.1602 10.6198 16.3852 10.8723 18.4029 8.18337C19.6317 6.54574 20.123 5.54567 19.9692 5.11814C19.823 4.71061 18.9192 4.81811 18.9192 4.81811L15.9139 4.83562C15.9139 4.83562 15.6914 4.80561 15.5252 4.90437C15.3639 5.00188 15.2601 5.2269 15.2601 5.2269C15.2601 5.2269 14.7839 6.49449 14.1488 7.57207C12.81 9.84599 12.2737 9.966 12.0549 9.82474C11.5461 9.49596 11.6736 8.50214 11.6736 7.79709C11.6736 5.59317 12.0074 4.67435 11.0223 4.43684C10.6948 4.35808 10.4548 4.30558 9.61848 4.29683C8.5459 4.28558 7.63709 4.30058 7.1233 4.55185C6.78077 4.71936 6.517 5.09314 6.67827 5.11439C6.87703 5.14064 7.32706 5.23565 7.56583 5.56067C7.8746 5.97945 7.86335 6.92202 7.86335 6.92202C7.86335 6.92202 8.04087 9.51596 7.44957 9.83849C7.04329 10.0598 6.487 9.60847 5.29317 7.54457C4.68187 6.48824 4.21934 5.3194 4.21934 5.3194C4.21934 5.3194 4.13058 5.10189 3.97182 4.98563C3.7793 4.84437 3.50929 4.79936 3.50929 4.79936L0.651577 4.81686C0.651577 4.81686 0.222795 4.82937 0.0652838 5.01563C-0.0747264 5.18189 0.054033 5.52442 0.054033 5.52442C0.054033 5.52442 2.2917 10.7586 4.82438 13.3975C7.1483 15.8164 9.78599 15.6577 9.78599 15.6577H10.9811C10.9811 15.6577 11.3424 15.6177 11.5261 15.4189C11.6961 15.2364 11.6899 14.8939 11.6899 14.8939C11.6899 14.8939 11.6661 13.29 12.4112 13.0537C13.145 12.8212 14.0876 14.6038 15.0864 15.2901C15.8414 15.8089 16.4152 15.6952 16.4152 15.6952L19.0867 15.6577C19.0867 15.6577 20.4843 15.5714 19.8217 14.4726Z" fill="#172542"/>
</g>
<defs>
<clipPath id="clip0_320_9098">
<rect width="20" height="20" fill="white"/>
</clipPath>
</defs>
</svg>
